<svg width="140" height="113" viewBox="0 0 140 113" fill="none" xmlns="http://www.w3.org/2000/svg">
<g clip-path="url(#clip0_107_1584)">
<path d="M34.3856 59.9937C36.58 59.3147 54.1349 44.3546 65.8527 34.2133C65.2519 33.2406 64.8701 32.1491 64.7337 31.0145C64.5973 29.8799 64.7095 28.7293 65.0628 27.6423C65.8514 24.9314 65.8314 22.0498 65.0052 19.3501C64.179 16.6504 62.5824 14.2495 60.4107 12.4413C58.3151 10.6028 55.8244 9.26937 53.1307 8.54401C50.437 7.81865 47.6123 7.72069 44.8747 8.25772C40.4581 8.82854 36.4361 11.0888 33.6565 14.562C30.877 18.0352 29.5571 22.45 29.975 26.8757C29.975 27.927 30.2603 29.066 30.3919 29.9641L30.1286 30.0955C29.9879 30.06 29.8543 30.0007 29.7336 29.9202C28.1502 28.8643 26.3143 28.2471 24.4135 28.1316C22.5128 28.0161 20.6154 28.4066 18.9154 29.2631C13.9759 31.5733 10.007 35.5427 7.70227 40.4777C6.81156 42.2883 6.07744 44.1716 5.50791 46.1069C5.09099 47.4868 4.76183 48.9105 4.47656 50.3343C18.4107 48.3849 31.4891 60.8479 34.3856 59.9937Z" fill="black"/>
<path d="M52.3573 111.795C54.5517 111.138 72.1066 96.1782 83.8244 86.015C83.2227 85.0428 82.8386 83.9522 82.6985 82.8181C82.5583 81.6839 82.6655 80.5329 83.0125 79.4439C83.8051 76.7367 83.787 73.8571 82.9604 71.16C82.1338 68.4629 80.5348 66.066 78.3605 64.2648C76.27 62.4252 73.7831 61.0909 71.0927 60.3654C68.4022 59.6399 65.5805 59.5427 62.8464 60.0813C58.4274 60.6468 54.4021 62.9057 51.6215 66.3802C48.8409 69.8547 47.5231 74.2724 47.9467 78.6992C48.0564 79.7506 48.2319 80.78 48.3636 81.7875C48.188 81.7875 48.1442 81.919 48.1003 81.8971C47.964 81.8588 47.8317 81.8075 47.7053 81.7438C46.1264 80.677 44.2894 80.0533 42.3863 79.9377C40.4832 79.8221 38.584 80.2189 36.8871 81.0867C31.9377 83.3827 27.9645 87.3564 25.674 92.3012C24.7832 94.1118 24.0491 95.9951 23.4796 97.9305C23.0627 99.3104 22.7335 100.712 22.4482 102.136C36.4044 100.165 49.4827 112.671 52.3573 111.795Z" fill="black"/>
<path d="M10.8619 35.6149C10.8619 35.6149 -4.19135 52.9187 4.27886 58.8764C8.98976 61.9924 13.1188 65.9063 16.4795 70.4415C16.4795 70.4415 37.1723 58.0441 37.6112 50.6188C38.05 43.1936 18.8494 29.3506 18.8494 29.3506L10.8619 35.6149Z" fill="black"/>
<path d="M27.3197 91.1403C27.3197 91.1403 39.8056 71.909 47.9028 78.4582C52.208 82.1083 57.1159 84.9839 62.4075 86.9567C62.4075 86.9567 56.1975 110.24 49.2414 112.715C42.2852 115.19 23.5674 100.603 23.5674 100.603L27.3197 91.1403Z" fill="black"/>
<path d="M96.5735 97.4265C103.448 98.2899 110.418 98.0087 117.201 96.5942C120.602 95.74 123.784 94.4038 125.298 90.8336C127.228 86.4518 127.846 81.6057 127.075 76.8811C126.79 75.1288 126.351 73.3765 125.956 71.4928C126.57 71.4928 127.163 71.3395 127.711 71.2081C129.351 70.9247 130.971 70.5369 132.561 70.0472C139.473 67.4188 141.053 62.6438 139.385 56.029C137.575 49.6393 133.485 44.1313 127.887 40.5432C123.235 37.192 122.928 32.8551 127.075 28.8687C129.23 27.0225 130.795 24.5855 131.575 21.8599C132.355 19.1343 132.316 16.2402 131.464 13.5363C130.722 10.8494 129.37 8.36912 127.513 6.28764C125.656 4.20616 123.343 2.57934 120.755 1.53316C116.745 -0.399567 112.139 -0.698477 107.912 0.699746C103.685 2.09797 100.17 5.08355 98.1096 9.02417C97.6049 9.94412 97.188 10.9079 96.7491 11.8278H96.4639C96.3711 11.7199 96.2902 11.6024 96.2225 11.4774C95.4696 9.71689 94.2587 8.18941 92.7154 7.05328C91.1721 5.91715 89.3524 5.21369 87.445 5.0158C82.0433 4.25505 76.5454 5.40997 71.909 8.2794C70.1567 9.30103 68.4973 10.4737 66.9497 11.784C64.5595 13.8177 62.3564 16.0608 60.3666 18.4864L57.6237 21.8158C57.0013 20.8707 56.1452 20.102 55.138 19.5839C54.1308 19.0659 53.0067 18.8162 51.8745 18.8588C50.5539 18.7853 49.2297 18.9108 47.9466 19.2311C43.8651 20.3701 40.7052 22.4729 40.1786 27.1602C40.1231 27.3852 40.0173 27.5947 39.8691 27.773C39.7209 27.9513 39.5341 28.0938 39.3228 28.1897C36.7554 29.3068 34.188 30.38 31.5548 31.3657C31.1378 31.519 23.6989 34.6731 21.0218 35.8778C20.4111 36.0463 19.8478 36.3537 19.3761 36.7758C16.8964 38.6814 13.7146 39.1852 13.0783 42.0326C12.7831 45.596 12.8861 49.181 13.3855 52.7216C13.7146 54.3862 15.3823 59.8183 15.5798 60.1906C17.7742 66.3236 19.9686 72.4566 22.1629 78.5895C22.3823 79.2247 23.2601 81.9846 23.5892 82.7293C25.3228 86.9348 27.2538 91.0746 28.8776 95.3238C28.8776 95.3238 28.8776 95.499 28.8776 95.5867L29.0751 95.7838L29.7334 96.3971C30.0626 96.5723 31.05 96.9446 30.1942 96.7256C31.1449 96.9633 32.0652 97.3087 32.9372 97.7551C43.3003 100.141 54.0229 100.542 64.5359 98.9379C64.2873 100.535 64.5851 102.169 65.3815 103.575C66.1778 104.982 67.4261 106.08 68.9247 106.692C72.8306 108.707 76.8902 109.232 80.5986 106.429C82.2199 105.296 83.3696 103.61 83.8305 101.689C84.2914 99.7685 84.0316 97.7456 83.1002 96.0028L84.7021 96.1342C88.7617 96.5942 92.6456 97.1199 96.5735 97.4265ZM46.3228 21.0711C49.9654 19.4064 55.1002 19.7787 56.2632 22.0567L41.8463 27.2478C41.3855 24.9479 43.2946 22.4291 46.3228 21.0711ZM33.1566 96.5504C32.4206 96.4128 31.7342 96.0828 31.1676 95.5941C30.6009 95.1055 30.1742 94.4756 29.9309 93.7686C25.1134 82.9932 20.8795 71.9672 17.2475 60.7382C15.8212 56.1385 15.0532 51.3197 14.0438 46.6105C13.9886 46.0716 13.9886 45.5285 14.0438 44.9896C13.9241 43.9342 14.1448 42.8683 14.6735 41.9466C15.2023 41.0248 16.0118 40.2954 16.9842 39.8642L27.7146 34.6731C41.9753 28.2068 56.7138 22.8464 71.7993 18.6398C78.5995 16.5257 85.6127 15.1667 92.7115 14.5876C93.4448 14.4754 94.1949 14.5894 94.8615 14.9143C95.5282 15.2392 96.0795 15.7595 96.4419 16.4056C103.595 29.3725 110.771 42.3174 117.837 55.3061C118.834 57.4441 119.706 59.6382 120.448 61.8772C120.743 62.5202 120.84 63.236 120.727 63.9341C120.613 64.6321 120.295 65.2808 119.812 65.7979C114.599 72.0658 108.553 77.5928 101.84 82.2255C93.1109 88.6358 83.2457 93.3402 72.7648 96.0905C59.7872 99.5019 46.1662 99.6599 33.1127 96.5504H33.1566ZM82.8149 98.5874C83.0752 100.142 82.8194 101.738 82.0865 103.134C81.3537 104.53 80.1839 105.648 78.7554 106.319C76.714 107.094 74.4832 107.221 72.3667 106.684C70.2502 106.147 68.351 104.972 66.9278 103.319C66.4635 102.66 66.1352 101.915 65.9623 101.128C65.6331 99.5731 66.1817 98.9379 67.7397 98.6312C71.1629 97.7989 74.5861 96.9666 77.9654 96.0028C80.8839 95.1048 82.0908 95.7838 82.771 98.5874H82.8149Z" fill="black"/>
<path d="M101.665 82.2038C108.377 77.5711 114.424 72.044 119.637 65.7762C120.12 65.259 120.438 64.6103 120.551 63.9123C120.665 63.2143 120.568 62.4985 120.273 61.8555C119.531 59.6165 118.659 57.4224 117.662 55.2845C110.596 42.2957 103.42 29.3507 96.2666 16.3839C95.9043 15.7377 95.3529 15.2174 94.6863 14.8925C94.0196 14.5676 93.2695 14.4537 92.5362 14.5659C85.4374 15.145 78.4243 16.5039 71.624 18.618C56.5385 22.8247 41.8 28.185 27.5394 34.6514L16.809 39.8425C15.8365 40.2736 15.0271 41.0031 14.4983 41.9248C13.9695 42.8465 13.7489 43.9125 13.8685 44.9679C13.8134 45.5068 13.8134 46.0499 13.8685 46.5888C14.8999 51.298 15.6459 56.1167 17.0723 60.7165C20.7257 71.9468 24.9816 82.9729 29.8215 93.7469C30.0648 94.4539 30.4915 95.0838 31.0581 95.5725C31.6248 96.0611 32.3111 96.3911 33.0472 96.5287C46.0535 99.6054 59.6185 99.4399 72.5456 96.0468C83.0403 93.3084 92.9207 88.6113 101.665 82.2038ZM109.586 49.9181C111.474 49.9181 112.044 50.9256 111.386 52.6998C110.366 55.2349 109.508 57.8321 108.818 60.4756C108.265 62.9468 108.665 65.5351 109.937 67.7256C111.298 70.3321 110.376 71.7996 107.392 71.8873C107.246 71.8982 107.099 71.8982 106.953 71.8873C102.718 71.7339 101.928 71.0988 101.116 66.9152C100.331 63.1075 100.542 59.1619 101.731 55.4597C101.999 54.4171 102.5 53.4484 103.195 52.6255C103.89 51.8026 104.762 51.1468 105.746 50.7066C107.002 50.337 108.286 50.0732 109.586 49.9181ZM89.8372 21.0931C89.9688 21.4217 90.0785 21.7502 90.0785 21.7502C90.7826 23.3814 91.8106 24.8532 93.1005 26.0767C94.3904 27.3002 95.9153 28.2501 97.5832 28.8689C99.0096 29.5041 100.524 29.964 101.972 30.4678C103.815 31.0811 104.276 32.4172 102.916 33.7315C101.138 35.4399 97.2541 37.5646 93.8748 35.9218C89.6503 33.9981 86.0809 30.8843 83.6052 26.9632C83.2933 26.5974 83.0571 26.1737 82.9103 25.7162C82.7634 25.2588 82.7088 24.7769 82.7496 24.2983C82.7904 23.8197 82.9258 23.3539 83.148 22.9278C83.3702 22.5018 83.6747 22.1239 84.0441 21.816C84.6401 21.1698 85.2701 20.5557 85.9312 19.9761C87.8184 18.64 89.0033 19.1218 89.8591 21.0931H89.8372ZM41.5613 36.6446L41.3638 36.097L51.3701 33.2714C50.4046 34.9361 47.3544 35.9437 41.5174 36.6446H41.5613ZM42.9438 38.8349L42.8121 38.2873L52.8622 35.5056C50.0286 37.7349 46.5069 38.9118 42.8999 38.8349H42.9438ZM65.5237 29.1536C65.9999 29.3535 66.4916 29.5146 66.9939 29.6354C67.5302 29.7995 68.1034 29.7995 68.6397 29.6354C71.0392 28.3365 73.8189 27.9181 76.4955 28.4527C77.9555 28.7661 79.3113 29.4461 80.4345 30.4285C81.5577 31.4108 82.4113 32.6631 82.9144 34.0666C83.4176 35.4701 83.5536 36.9786 83.3097 38.4492C83.0658 39.9199 82.45 41.3041 81.5205 42.4709C80.4324 44.0239 79.0067 45.3112 77.35 46.2367C75.6932 47.1622 73.8483 47.7019 71.9531 47.8154C71.2816 47.9055 70.6203 48.0595 69.9782 48.2753C70.0107 47.8708 70.0993 47.4727 70.2415 47.0925C71.1883 45.5883 71.7141 43.8584 71.7643 42.0826C71.8145 40.3069 71.3872 38.5501 70.5268 36.995C69.2158 34.7561 67.7493 32.6117 66.1381 30.5773C65.8999 30.1179 65.6945 29.642 65.5237 29.1536ZM45.182 43.6537C48.1005 41.9014 51.5237 41.7043 54.7055 40.7844C51.9012 42.762 48.5258 43.7697 45.0942 43.6537H45.182ZM45.95 46.6763C48.9124 44.9022 52.3575 44.6613 55.5832 43.7632C52.7086 46.1069 49.2854 46.3478 45.7745 46.6763H45.95ZM42.0441 80.2325C39.4622 80.4735 36.8668 80.5394 34.276 80.4296C32.9124 80.4216 31.5792 80.026 30.4328 79.2889C29.2863 78.5519 28.374 77.5039 27.8027 76.268C25.3616 71.713 24.0309 66.6476 23.9186 61.4831C23.8371 60.7624 24.0123 60.036 24.4135 59.4313C24.8147 58.8265 25.4164 58.382 26.113 58.1757C27.671 57.5624 29.1412 56.7519 30.6334 55.9853V55.7006C36.4046 53.7731 42.1099 51.6923 47.9469 49.9838C50.6489 49.2966 53.432 48.9797 56.2196 49.042C56.9219 49.0699 57.6116 49.2374 58.2484 49.5345C58.8851 49.8316 59.4561 50.2524 59.9281 50.7724C63.6852 55.2169 66.0844 60.6451 66.8403 66.4114C67.1047 68.1544 66.7746 69.9355 65.9031 71.4688C65.0316 73.002 63.6692 74.1986 62.0347 74.8662C55.7267 77.7803 48.9655 79.5952 42.0441 80.2325ZM60.3889 81.1525C63.4231 79.7183 66.668 78.7791 70.0002 78.3707C67.1542 80.2517 63.8015 81.2221 60.3889 81.1525ZM61.508 83.3428C64.5388 81.9273 67.7629 80.9677 71.0754 80.4953C68.2581 82.4142 64.9185 83.4234 61.508 83.3866V83.3428ZM63.7024 88.5777L63.5707 87.9863L73.2698 85.3141L73.4234 85.796C70.4371 87.5305 67.0676 88.5012 63.6146 88.6215L63.7024 88.5777ZM82.903 71.274C82.5108 70.0835 81.8834 68.9835 81.058 68.0392C80.2326 67.0949 79.2258 66.3254 78.0973 65.7762C77.7708 65.5708 77.4752 65.3201 77.2196 65.0315L77.3513 64.462C79.6932 63.6903 82.0925 63.1044 84.5268 62.7097C86.7123 62.4118 88.936 62.8212 90.8712 63.8777C92.8065 64.9343 94.3514 66.5823 95.2792 68.5798C96.1475 70.5314 96.2333 72.7409 95.519 74.7537C94.8046 76.7665 93.3445 78.4294 91.439 79.4001C89.7935 80.2411 88.0343 80.8387 86.2164 81.1743C85.3387 81.3714 84.6804 81.4153 84.5488 82.5105C84.5488 82.839 83.9782 83.1018 83.671 83.3866C83.671 82.9923 83.3419 82.5981 83.4077 82.2476C84.3037 78.6266 84.0975 74.8211 82.8152 71.3177L82.903 71.274ZM64.6898 91.4033C67.74 89.5196 71.2729 89.2129 74.6522 88.3587C71.7776 90.8118 68.2227 91.1185 64.6898 91.4033Z" fill="white"/>
<path d="M65.9182 101.063C66.0911 101.849 66.4194 102.594 66.8837 103.253C68.3069 104.906 70.2061 106.081 72.3226 106.618C74.4391 107.155 76.6699 107.028 78.7113 106.254C80.1398 105.583 81.3096 104.464 82.0425 103.068C82.7753 101.673 83.0311 100.076 82.7709 98.5217C82.0906 95.6742 80.7959 95.0391 77.9213 95.8714C74.542 96.8351 71.1188 97.6674 67.6956 98.4998C66.1376 98.9378 65.5232 99.5074 65.9182 101.063ZM77.3947 99.376C76.2055 99.0548 74.9833 98.8711 73.752 98.8284C73.1157 98.8284 72.3477 99.6825 72.0404 100.34C71.9723 100.659 71.9847 100.991 72.0766 101.304C72.1686 101.618 72.3371 101.903 72.5671 102.136C72.8629 102.344 73.2027 102.482 73.5602 102.539C73.9178 102.596 74.2837 102.57 74.6298 102.464C75.0467 102.201 75.0028 101.15 75.0467 100.427C75.0467 100.164 74.7176 99.8797 74.5201 99.5731C75.0292 99.6492 75.4885 99.9207 75.8 100.33C76.1115 100.739 76.2507 101.253 76.1878 101.763C76.1946 102.288 76.0122 102.798 75.6738 103.2C75.3355 103.602 74.8638 103.87 74.3445 103.954C73.5769 104.069 72.7931 103.913 72.1281 103.513C71.4632 103.113 70.9588 102.495 70.7019 101.763C70.4502 101.098 70.4396 100.366 70.6721 99.6939C70.9046 99.0218 71.3654 98.4521 71.9746 98.0836C72.8686 97.5515 73.9354 97.3889 74.9478 97.6303C75.9601 97.8716 76.8381 98.498 77.3947 99.376Z" fill="white"/>
<path d="M56.263 22.0568L41.8461 27.2479C41.4511 25.0576 43.2943 22.4292 46.2348 21.0712C49.9652 19.4065 55.0122 19.7788 56.263 22.0568Z" fill="white"/>
<path d="M26.0254 58.1755C25.3288 58.3818 24.7271 58.8263 24.3259 59.4311C23.9247 60.0358 23.7495 60.7622 23.8311 61.4829C23.9433 66.6475 25.274 71.7128 27.7151 76.2678C28.2864 77.5037 29.1987 78.5517 30.3452 79.2887C31.4916 80.0258 32.8248 80.4214 34.1884 80.4294C36.7793 80.5392 39.3746 80.4733 41.9565 80.2323C48.793 79.582 55.4702 77.7825 61.7057 74.9098C63.3402 74.2422 64.7026 73.0457 65.5741 71.5124C66.4456 69.9791 66.7757 68.198 66.5113 66.455C65.7555 60.6887 63.3563 55.2605 59.5991 50.8159C59.1272 50.296 58.5562 49.8752 57.9194 49.5781C57.2827 49.281 56.593 49.1135 55.8906 49.0856C53.103 49.0233 50.3199 49.3401 47.6179 50.0274C41.7809 51.7359 36.0756 53.8167 30.3044 55.7442V56.029C29.0536 56.7518 27.5834 57.5622 26.0254 58.1755ZM55.9345 50.2246C56.6565 50.2364 57.363 50.4341 57.9859 50.7987C58.6087 51.1633 59.1266 51.6823 59.4894 52.3054C61.9516 55.6762 63.8078 59.4486 64.9753 63.4542C65.3541 64.8826 65.5241 66.358 65.48 67.8349C65.4931 69.0461 65.1565 70.2355 64.5106 71.2609C63.8647 72.2863 62.9366 73.1044 61.8374 73.6175C60.5866 74.2308 59.3577 74.8441 58.085 75.3259C57.6022 75.5012 56.6587 75.5011 56.4612 75.2164C56.3122 75.0502 56.1991 74.8553 56.1291 74.6435C56.059 74.4318 56.0335 74.2079 56.0541 73.9858C56.0747 73.7638 56.141 73.5484 56.2488 73.3531C56.3566 73.1578 56.5036 72.9868 56.6806 72.8508C57.2292 72.4347 57.7997 72.0623 58.3703 71.6899C58.9146 71.3974 59.3632 70.9549 59.6627 70.4152C59.9623 69.8754 60.1001 69.2611 60.0599 68.6453C59.8344 63.6298 58.2659 58.7663 55.5176 54.5614C55.194 54.1198 54.7165 53.8151 54.179 53.7072L54.6618 55.0433C54.6618 55.1966 54.6618 55.2405 54.5521 55.2843C51.8091 57.1899 51.2825 57.0365 50.0536 53.9481C49.7025 53.0501 49.4612 52.1082 49.0223 50.7283C51.5677 50.5093 53.7402 50.2684 55.9345 50.2246ZM27.9345 58.986C29.41 66.071 31.9631 72.8888 35.5051 79.2028C34.2416 79.4697 32.9253 79.314 31.7593 78.7598C30.5933 78.2056 29.6425 77.2836 29.0537 76.1363C26.4972 71.6512 25.1584 66.5774 25.1696 61.4172C25.1477 59.8183 25.7402 59.3583 27.9345 58.8983V58.986Z" fill="#942C27"/>
<path d="M105.746 50.7065C107.002 50.3369 108.286 50.0731 109.586 49.918C111.473 49.918 112.044 50.9255 111.385 52.6997C110.366 55.2348 109.508 57.8319 108.818 60.4755C108.265 62.9467 108.665 65.535 109.937 67.7255C111.298 70.332 110.376 71.7995 107.392 71.8871C107.246 71.8981 107.099 71.8981 106.953 71.8871C102.718 71.7338 101.928 71.0986 101.116 66.9151C100.33 63.1074 100.542 59.1618 101.73 55.4595C101.999 54.417 102.499 53.4483 103.194 52.6254C103.89 51.8025 104.762 51.1467 105.746 50.7065Z" fill="black"/>
<path d="M90.0999 21.7501C90.804 23.3813 91.832 24.8531 93.1218 26.0766C94.4117 27.3001 95.9367 28.2499 97.6046 28.8687C99.0309 29.5039 100.545 29.9639 101.993 30.4676C103.837 31.0809 104.297 32.4171 102.937 33.7313C101.159 35.4398 97.2754 37.5644 93.8961 35.9216C89.6716 33.9979 86.1023 30.8841 83.6265 26.9631C83.3146 26.5973 83.0784 26.1735 82.9316 25.7161C82.7847 25.2587 82.7301 24.7767 82.7709 24.2981C82.8117 23.8195 82.9471 23.3538 83.1693 22.9277C83.3915 22.5016 83.6961 22.1237 84.0654 21.8158C84.6615 21.1697 85.2914 20.5555 85.9525 19.9759C87.7739 18.596 88.9588 18.9683 89.8146 21.0492C89.9902 21.4215 90.0999 21.7501 90.0999 21.7501Z" fill="black"/>
<path d="M69.9125 48.2972C69.9449 47.8926 70.0335 47.4945 70.1758 47.1144C71.1226 45.6101 71.6484 43.8802 71.6985 42.1045C71.7487 40.3287 71.3214 38.572 70.461 37.0169C69.1501 34.778 67.6836 32.6334 66.0723 30.5991C65.8031 30.1351 65.5684 29.6519 65.3701 29.1535C65.8464 29.3534 66.3381 29.5145 66.8404 29.6354C67.3766 29.7994 67.9499 29.7994 68.4861 29.6354C70.8857 28.3365 73.6653 27.918 76.3419 28.4526C77.8019 28.766 79.1577 29.446 80.281 30.4284C81.4042 31.4108 82.2578 32.663 82.7609 34.0665C83.264 35.4701 83.4 36.9785 83.1561 38.4492C82.9122 39.9198 82.2964 41.304 81.367 42.4708C80.2789 44.0238 78.8532 45.3111 77.1964 46.2366C75.5397 47.1621 73.6947 47.7018 71.7996 47.8153C71.1571 47.9179 70.5254 48.0792 69.9125 48.2972ZM81.0598 40.5433C78.0755 40.1271 76.7808 39.2072 76.3419 36.973C75.7714 34.0818 77.5488 32.5924 79.9626 31.6505C77.1538 28.7812 70.7244 28.6935 68.552 31.4534C71.9532 35.8341 73.9062 40.7404 72.0849 46.4354C73.9768 46.3744 75.8148 45.7916 77.3951 44.7516C78.9754 43.7116 80.2363 42.255 81.0379 40.5433H81.0598Z" fill="black"/>
<path d="M77.2635 64.5059C79.6054 63.7342 82.0047 63.1483 84.4391 62.7536C86.6246 62.4557 88.8482 62.865 90.7835 63.9216C92.7187 64.9781 94.2637 66.6262 95.1914 68.6237C96.0597 70.5753 96.1455 72.7848 95.4312 74.7976C94.7169 76.8104 93.2567 78.4733 91.3513 79.4441C89.7058 80.285 87.9465 80.8826 86.1287 81.2182C85.251 81.4154 84.5927 81.4591 84.461 82.5543C84.461 82.8829 83.8905 83.1457 83.5833 83.4304C83.5833 83.0362 83.2541 82.6419 83.3199 82.2915C84.2486 78.6722 84.0729 74.8586 82.8152 71.3397C82.423 70.1493 81.7957 69.0493 80.9703 68.105C80.1448 67.1607 79.1381 66.3912 78.0096 65.8419C77.683 65.6366 77.3875 65.3859 77.1318 65.0972L77.2635 64.5059ZM84.9218 80.0135C89.3105 80.364 94.4673 76.6623 94.2917 73.4425C91.2635 73.9243 89.6836 73.4425 88.7181 71.4493C88.4337 70.9339 88.2562 70.3665 88.1963 69.7811C88.1363 69.1958 88.1952 68.6044 88.3693 68.0422C88.5434 67.48 88.8291 66.9586 89.2095 66.5091C89.5899 66.0596 90.0571 65.6912 90.5833 65.4258C87.8403 63.3888 82.0692 63.2354 79.7651 65.2944C84.4391 69.1056 85.4485 74.2748 84.9218 80.0135Z" fill="black"/>
<path d="M74.6519 88.4023C71.2945 89.3004 67.7396 89.5632 64.6895 91.4469C68.2224 91.1183 71.7772 90.8117 74.6519 88.4023Z" fill="black"/>
<path d="M69.9121 78.3706C66.5799 78.779 63.335 79.7183 60.3008 81.1524C63.7134 81.2221 67.0661 80.2516 69.9121 78.3706Z" fill="black"/>
<path d="M73.3351 85.8398L73.1815 85.3579L63.4824 88.0301L63.6141 88.6216C67.0333 88.5003 70.3708 87.5452 73.3351 85.8398Z" fill="black"/>
<path d="M55.4955 43.7632C52.7087 46.1069 49.2855 46.3478 45.8623 46.6763C48.8247 44.9021 52.3576 44.6612 55.4955 43.7632Z" fill="black"/>
<path d="M41.3857 36.0968L51.392 33.2712C50.4704 34.9359 47.4202 35.9435 41.5832 36.6444L41.3857 36.0968Z" fill="black"/>
<path d="M54.5518 40.7842C51.7718 42.7436 48.4302 43.7504 45.0283 43.6535C47.9688 41.9013 51.4358 41.7041 54.5518 40.7842Z" fill="black"/>
<path d="M71.0752 80.4514C67.7627 80.9238 64.5386 81.8833 61.5078 83.2988C64.9136 83.3486 68.2528 82.3548 71.0752 80.4514Z" fill="black"/>
<path d="M42.7676 38.1997L52.8177 35.418C49.9959 37.6376 46.4913 38.8139 42.8992 38.7473L42.7676 38.1997Z" fill="black"/>
<path d="M70.7025 101.873C70.9595 102.604 71.4639 103.223 72.1288 103.623C72.7937 104.023 73.5775 104.179 74.3452 104.063C74.8644 103.98 75.3362 103.712 75.6745 103.31C76.0128 102.908 76.1952 102.398 76.1884 101.873C76.2513 101.363 76.1122 100.849 75.8007 100.44C75.4891 100.03 75.0299 99.7589 74.5207 99.6828C74.7182 99.9894 75.0693 100.274 75.0474 100.537C75.0474 101.26 75.0474 102.311 74.6304 102.574C74.2843 102.68 73.9184 102.706 73.5609 102.649C73.2033 102.592 72.8636 102.454 72.5678 102.246C72.3378 102.013 72.1692 101.727 72.0773 101.414C71.9854 101.1 71.9729 100.769 72.0411 100.449C72.3483 99.7923 73.1163 98.9819 73.7527 98.9381C74.9839 98.9808 76.2061 99.1645 77.3953 99.4857C76.8215 98.6259 75.9357 98.0221 74.9246 97.8015C73.9136 97.5808 72.8562 97.7606 71.9753 98.3029C71.3901 98.6668 70.9457 99.2179 70.7146 99.8663C70.4835 100.515 70.4792 101.222 70.7025 101.873Z" fill="black"/>
<path d="M54.5513 55.2406C54.5513 55.2406 54.5513 55.2406 54.661 54.9997L54.1782 53.6636C54.7157 53.7714 55.1932 54.0762 55.5168 54.5178C58.265 58.7227 59.8336 63.5862 60.0591 68.6017C60.0993 69.2175 59.9615 69.8318 59.6619 70.3716C59.3624 70.9113 58.9138 71.3538 58.3695 71.6463C57.7989 72.0187 57.2284 72.3911 56.6798 72.8072C56.5028 72.9432 56.3558 73.1142 56.248 73.3095C56.1402 73.5048 56.0739 73.7202 56.0533 73.9422C56.0327 74.1643 56.0582 74.3881 56.1283 74.5999C56.1983 74.8116 56.3114 75.0066 56.4604 75.1728C56.6578 75.4575 57.6014 75.4576 58.0842 75.2823C59.3569 74.8005 60.5858 74.1871 61.8366 73.5738C62.9358 73.0608 63.8638 72.2427 64.5098 71.2173C65.1557 70.1919 65.4923 69.0025 65.4792 67.7913C65.5233 66.3144 65.3533 64.839 64.9745 63.4106C63.807 59.405 61.9508 55.6326 59.4886 52.2618C59.1258 51.6387 58.6079 51.1197 57.985 50.7551C57.3622 50.3905 56.6556 50.1927 55.9337 50.1809C53.7394 50.1809 51.545 50.4657 49.0215 50.6409C49.4604 52.0208 49.7017 52.9626 50.0528 53.8607C51.2817 56.9929 51.8083 57.1462 54.5513 55.2406Z" fill="white"/>
<path d="M25.1695 61.3297C25.1583 66.4899 26.4971 71.5637 29.0535 76.0488C29.6424 77.1961 30.5932 78.118 31.7592 78.6723C32.9252 79.2265 34.2415 79.3822 35.505 79.1154C31.963 72.8014 29.4099 65.9835 27.9344 58.8984C25.74 59.3584 25.1476 59.8184 25.1695 61.3297Z" fill="white"/>
<path d="M81.0372 40.5434C80.2339 42.2583 78.9697 43.717 77.3851 44.7573C75.8006 45.7975 73.9579 46.3785 72.0622 46.4354C73.8835 40.7405 71.9306 35.8998 68.5293 31.4534C70.7237 28.6936 77.1312 28.7812 79.94 31.6506C77.5262 32.6143 75.7487 34.0818 76.3193 36.9731C76.7581 39.2072 78.0528 40.1272 81.0372 40.5434Z" fill="white"/>
<path d="M84.9214 80.0134C85.448 74.2747 84.4386 69.0616 79.7646 65.2943C81.959 63.3229 87.8399 63.3887 90.5828 65.4257C90.0567 65.6911 89.5895 66.0595 89.2091 66.509C88.8287 66.9585 88.5429 67.4799 88.3688 68.0421C88.1948 68.6043 88.1359 69.1957 88.1958 69.781C88.2558 70.3664 88.4332 70.9338 88.7176 71.4492C89.6831 73.4205 91.2631 73.9242 94.2913 73.4423C94.4668 76.6622 89.354 80.4515 84.9214 80.0134Z" fill="white"/>
<path d="M23.5014 72.7853C33.1127 97.7991 28.2412 99.4637 22.097 101.26C15.9528 103.056 7.2851 91.8632 2.72084 76.2899C-1.84343 60.7165 -0.526812 46.6545 5.61739 44.8584C9.06253 43.8508 13.7146 41.2881 17.1378 52.5465C19.7052 60.8917 20.956 66.1047 23.5014 72.7853Z" fill="#C71E1C"/>
<path d="M12.266 77.2973C14.1566 77.2973 15.6892 75.7674 15.6892 73.8803C15.6892 71.9932 14.1566 70.4634 12.266 70.4634C10.3754 70.4634 8.84277 71.9932 8.84277 73.8803C8.84277 75.7674 10.3754 77.2973 12.266 77.2973Z" fill="white"/>
</g>
<defs>
<clipPath id="clip0_107_1584">
<rect width="140" height="113" fill="white"/>
</clipPath>
</defs>
</svg>
