<svg width="395" height="757" viewBox="0 0 395 757" fill="none" xmlns="http://www.w3.org/2000/svg">
<path d="M355.526 0L355.526 213.119C355.526 227.151 356.027 241.205 356.132 255.238C356.257 269.647 356.132 284.077 356.132 298.486C355.923 382.349 355.721 466.218 355.526 550.094C355.526 554.737 353.773 555.427 349.744 555.427C253.718 555.329 157.692 555.329 61.6655 555.427C56.3005 555.427 50.9356 555.74 45.5706 555.991C40.8111 556.221 39.0576 554.402 39.0993 549.278C39.3498 520.23 39.2246 491.16 39.2246 462.091L39.2246 0H12.5043L12.5043 290.435C12.5043 376.584 12.5043 462.725 12.5043 548.86C12.5043 552.583 12.2955 555.134 7.80734 556.514C2.4424 558.104 0.125251 562.788 0 568.267C0 572.785 0 577.302 0 581.819V621.554H103.666C104.397 621.554 104.919 621.764 105.42 621.764C121.41 621.764 137.38 621.638 153.433 621.868C157.253 621.868 158.714 620.781 159.696 617.037C161.837 609.376 166.254 602.548 172.36 597.46C178.466 592.373 185.972 589.267 193.882 588.554C201.792 587.842 209.731 589.556 216.645 593.471C223.559 597.385 229.121 603.314 232.592 610.47C234.251 614.164 235.721 617.941 236.997 621.785C254.093 621.785 271.274 621.784 288.454 621.638C289.915 621.638 337.407 621.638 338.763 621.638C356.967 621.847 375.17 621.785 394.083 621.785C394.208 619.463 394.354 617.748 394.354 616.033C394.354 600.411 394.354 584.789 394.354 569.167C394.354 563.75 392.747 558.48 387.507 556.786C382.267 555.092 382.267 552.081 382.267 547.856C382.267 444.001 382.267 340.132 382.267 236.249C382.267 203.185 382.267 33.0429 382.267 0H355.526Z" fill="#9F4B37"/>
<path d="M0.230469 756.5V634.102H33.0046C40.0813 634.102 47.158 634.102 54.2556 633.977C57.3034 633.977 105.003 633.977 107.863 633.977C123.311 633.977 138.759 633.942 154.206 633.872C156.899 633.872 158.381 634.395 159.342 637.553C161.456 646.081 166.387 653.643 173.334 659.007C180.281 664.372 188.835 667.226 197.606 667.103C215.538 667.103 230.297 655.622 235.307 637.699C236.037 635.085 237.018 634.04 239.878 634.061C255.681 634.207 271.462 634.061 287.265 634.249C289.123 634.249 337.366 634.249 338.514 634.249C356.55 634.249 374.586 634.249 392.622 634.395C392.936 634.395 393.249 634.667 393.938 635.023V756.584L0.230469 756.5Z" fill="#9F4B37"/>
</svg>
