<svg width="411" height="802" viewBox="0 0 411 802" fill="none" xmlns="http://www.w3.org/2000/svg">
<path d="M185.148 601.763C185.476 596.713 187.713 591.977 191.406 588.517C195.098 585.056 199.969 583.131 205.03 583.131C210.09 583.131 214.961 585.056 218.653 588.517C222.346 591.977 224.583 596.713 224.911 601.763" stroke="#8F90B8" stroke-width="3" stroke-miterlimit="10"/>
<path d="M205.07 598.205V2" stroke="#B38A54" stroke-width="3" stroke-miterlimit="10" stroke-linecap="round"/>
<path d="M373.543 640.086L358.772 639.457H58.3144L13.543 639.857V799.857C36.8858 795.286 400.772 719.657 400.772 719.657C400.772 700.943 401.315 669.086 401.315 648.457C401.315 645.886 401.086 643.314 400.915 640.114L373.543 640.086Z" fill="#8F90B8"/>
<path d="M133.487 639.057L31.373 784.4L98.3445 772.657L193.259 639.057H133.487Z" fill="#A2A4C8"/>
<path d="M167.801 757.343L147.144 765.428L236.486 639.057L255.972 640.457L167.801 757.343Z" fill="#A1A5C9"/>
<path d="M298.4 736.371L287.229 742.457L369.486 633.371L379.6 628.742L298.4 736.371Z" fill="#A1A5C9"/>
<path d="M0.5 602.5H410.443V641.529H0.5V602.5Z" fill="#9E4B37" stroke="white"/>
<path d="M70.8588 628.714C74.567 628.714 77.5731 625.708 77.5731 622C77.5731 618.292 74.567 615.286 70.8588 615.286C67.1506 615.286 64.1445 618.292 64.1445 622C64.1445 625.708 67.1506 628.714 70.8588 628.714Z" fill="#A1A5C9"/>
<path d="M340.116 628.714C343.824 628.714 346.83 625.708 346.83 622C346.83 618.292 343.824 615.286 340.116 615.286C336.407 615.286 333.401 618.292 333.401 622C333.401 625.708 336.407 628.714 340.116 628.714Z" fill="#A1A5C9"/>
<path d="M13.544 787.143L13.4297 802L400.658 719.629L400.773 706.2L13.544 787.143Z" fill="#A7A8CA"/>
</svg>
