<svg width="381" height="962" viewBox="0 0 381 962" fill="none" xmlns="http://www.w3.org/2000/svg">
<path d="M171.493 733.53C171.797 728.853 173.869 724.466 177.289 721.261C180.709 718.056 185.221 716.272 189.908 716.272C194.595 716.272 199.107 718.056 202.527 721.261C205.947 724.466 208.019 728.853 208.323 733.53" stroke="#8F90B8" stroke-width="3" stroke-miterlimit="10"/>
<path d="M189.946 730.235V2" stroke="#B38A54" stroke-width="3" stroke-miterlimit="10" stroke-linecap="round"/>
<path d="M345.994 769.027L332.312 768.445H54.0135L12.5439 768.815V948.285C34.1653 944.051 371.215 874 371.215 874C371.215 856.666 371.717 795.888 371.717 776.781C371.717 774.399 371.506 772.018 371.347 769.054L345.994 769.027Z" fill="#8F90B8"/>
<path d="M141.643 769.074L16 950L84.5 935.5L197.006 770.074L141.643 769.074Z" fill="#A2A4C8"/>
<path d="M134 928L111 933L219.046 768.074L237.094 769.371L134 928Z" fill="#A1A5C9"/>
<path d="M245 905H239L342.236 762.807L351.604 758.52L245 905Z" fill="#A1A5C9"/>
<path d="M0.5 734.25H380.136V770.326H0.5V734.25Z" fill="#9E4B37" stroke="white"/>
<path d="M65.6332 758.494C69.0679 758.494 71.8523 755.71 71.8523 752.275C71.8523 748.84 69.0679 746.056 65.6332 746.056C62.1984 746.056 59.4141 748.84 59.4141 752.275C59.4141 755.71 62.1984 758.494 65.6332 758.494Z" fill="#A1A5C9"/>
<path d="M315.033 758.494C318.467 758.494 321.252 755.71 321.252 752.275C321.252 748.84 318.467 746.056 315.033 746.056C311.598 746.056 308.813 748.84 308.813 752.275C308.813 755.71 311.598 758.494 315.033 758.494Z" fill="#A1A5C9"/>
<path d="M12.5453 947.973L12.4395 961.735L371.11 885.438L371.216 873L12.5453 947.973Z" fill="#A7A8CA"/>
</svg>
