<svg width="410" height="631" viewBox="0 0 410 631" fill="none" xmlns="http://www.w3.org/2000/svg">
<path d="M369.69 0L369.69 124.808C369.69 139.4 370.211 154.014 370.32 168.606C370.45 183.589 370.32 198.594 370.32 213.577C370.103 300.78 369.893 387.991 369.69 475.209C369.69 480.036 367.867 480.754 363.677 480.754C263.826 480.652 163.974 480.652 64.1222 480.754C58.5435 480.754 52.9648 481.08 47.3862 481.341C42.437 481.58 40.6136 479.688 40.657 474.36C40.9175 444.155 40.7873 413.927 40.7873 383.7L40.7873 0H13.0024L13.0024 205.205C13.0024 294.786 13.0024 384.359 13.0024 473.926C13.0024 477.796 12.7854 480.449 8.11838 481.885C2.53971 483.537 0.130241 488.409 0 494.106C0 498.803 0 503.501 0 508.198V549.516H107.796C108.556 549.516 109.099 549.734 109.62 549.734C126.247 549.734 142.853 549.603 159.546 549.842C163.518 549.842 165.038 548.711 166.058 544.819C168.284 536.852 172.877 529.752 179.226 524.462C185.576 519.172 193.381 515.942 201.606 515.201C209.831 514.46 218.086 516.243 225.276 520.314C232.465 524.384 238.249 530.549 241.858 537.991C243.584 541.832 245.112 545.758 246.438 549.755C264.216 549.755 282.081 549.755 299.946 549.603C301.465 549.603 350.849 549.603 352.26 549.603C371.188 549.821 390.116 549.755 409.783 549.755C409.913 547.342 410.065 545.558 410.065 543.775C410.065 527.531 410.065 511.286 410.065 495.041C410.065 489.409 408.394 483.929 402.945 482.167C397.497 480.406 397.497 477.274 397.497 472.882C397.497 364.889 397.497 256.882 397.497 148.86C397.497 114.479 397.497 34.3594 397.497 0H369.69Z" fill="#9F4B37"/>
<path d="M0.239258 631V562.564H34.3191C41.6777 562.564 49.0364 562.564 56.4167 562.433C59.5859 562.433 109.186 562.433 112.16 562.433C128.223 562.433 144.286 562.397 160.349 562.325C163.15 562.325 164.691 562.868 165.689 566.152C167.888 575.02 173.016 582.883 180.239 588.461C187.463 594.04 196.358 597.007 205.478 596.88C224.124 596.88 239.471 584.941 244.681 566.304C245.44 563.586 246.461 562.499 249.435 562.52C265.867 562.673 282.277 562.52 298.709 562.716C300.641 562.716 350.806 562.716 352 562.716C370.754 562.716 389.509 562.716 408.264 562.868C408.59 562.868 408.915 563.151 409.631 563.521V631.087L0.239258 631Z" fill="#9F4B37"/>
</svg>
