<svg width="104" height="132" viewBox="0 0 104 132" fill="none" xmlns="http://www.w3.org/2000/svg">
<g clip-path="url(#clip0_128_307)">
<path d="M44.2046 103.406C44.2046 101.179 36.1443 80.4339 30.5656 66.498C29.5023 66.7286 28.4022 66.7306 27.338 66.5039C26.2739 66.2771 25.2701 65.8269 24.3931 65.1829C22.1648 63.5983 19.5219 62.6999 16.7895 62.5981C14.0572 62.4963 11.3547 63.1957 9.01477 64.6101C6.66649 65.9373 4.65499 67.7869 3.13592 70.0158C1.61685 72.2448 0.630917 74.7934 0.254411 77.4643C-0.614889 81.6799 0.18636 86.0683 2.48928 89.7047C4.7922 93.3411 8.41691 95.9414 12.5995 96.9576C13.5752 97.2122 14.5934 97.3819 15.5479 97.5728C15.5479 97.7425 15.5479 97.8061 15.5479 97.8486C15.4676 97.9641 15.3752 98.0708 15.2722 98.1667C13.7993 99.2676 12.6499 100.745 11.9445 102.443C11.2392 104.141 11.0038 105.998 11.2632 107.818C11.7978 113.068 14.1722 117.959 17.966 121.627C19.3322 123.023 20.8154 124.301 22.3992 125.445C23.5446 126.272 24.7325 127.014 25.9415 127.736C28.5293 114.33 43.9925 106.333 44.2046 103.406Z" fill="black"/>
<path d="M97.2976 103.406C97.4036 101.179 89.2584 80.4341 83.6798 66.4981C82.613 66.7278 81.5097 66.7293 80.4423 66.5027C79.3749 66.276 78.3674 65.8263 77.486 65.183C75.2621 63.5977 72.6224 62.6987 69.8932 62.5969C67.164 62.4951 64.4647 63.195 62.1289 64.6102C59.7806 65.9374 57.7691 67.787 56.25 70.016C54.731 72.2449 53.745 74.7935 53.3685 77.4645C52.493 81.6776 53.289 86.0661 55.5885 89.7033C57.888 93.3405 61.5109 95.9417 65.6924 96.9578C66.6894 97.2123 67.8135 97.382 68.662 97.5729C68.662 97.7426 68.662 97.8063 68.662 97.8487C68.5817 97.9643 68.4893 98.0709 68.3863 98.1669C66.913 99.2683 65.762 100.745 65.0532 102.442C64.3444 104.14 64.1036 105.996 64.3561 107.818C64.8982 113.07 67.2799 117.961 71.0801 121.627C72.4416 123.029 73.9252 124.306 75.5133 125.445C76.6535 126.27 77.8359 127.034 79.0556 127.736C81.6222 114.33 97.1915 106.333 97.2976 103.406Z" fill="black"/>
<path d="M14.4667 117.172C14.4667 117.172 25.5178 136.411 33.557 130.514C37.9054 127.194 42.8013 124.66 48.0233 123.027C48.0233 123.027 43.2295 100.203 36.569 97.4456C29.9086 94.6881 11.1152 107.818 11.1152 107.818L14.4667 117.172Z" fill="black"/>
<path d="M98.1453 58.5014C101.103 52.4994 103.046 46.0485 103.894 39.4111C104.191 36.0384 103.894 32.687 101.2 30.184C97.8053 27.0306 93.5683 24.9304 89.0032 24.1388C87.285 23.8418 85.5669 23.6721 83.7215 23.4388C83.7215 22.8449 83.9336 22.3146 83.9973 21.7631C84.2776 20.1726 84.4336 18.5627 84.4639 16.948C84.273 9.79974 80.4125 6.85135 73.8582 6.34227C67.4376 5.96827 61.1014 7.9521 56.0405 11.9209C51.5012 15.1238 47.4286 14.042 45.1166 8.99371C44.1176 6.44956 42.3968 4.25292 40.1658 2.67389C37.9348 1.09486 35.2909 0.202363 32.5594 0.106148C29.8671 -0.0666762 27.1713 0.382998 24.6809 1.42034C22.1905 2.45769 19.9726 4.05477 18.1992 6.08774C15.1585 9.13389 13.4227 13.2439 13.3594 17.5474C13.296 21.851 14.9101 26.0103 17.8598 29.1446C18.5598 29.887 19.3022 30.587 19.9809 31.2658C19.9437 31.3531 19.9012 31.4382 19.8537 31.5204C19.7253 31.5753 19.5895 31.6111 19.4507 31.6264C17.6129 31.7466 15.8409 32.357 14.319 33.3941C12.797 34.4311 11.5806 35.8569 10.7964 37.5232C8.36838 42.2106 7.68431 47.6081 8.86612 52.753C9.24577 54.6707 9.79227 56.5516 10.4994 58.3741C11.601 61.1925 12.9571 63.9046 14.5508 66.4769L16.672 70.0405C15.6197 70.3039 14.6523 70.8319 13.8616 71.5744C13.0708 72.3169 12.483 73.2492 12.1539 74.2828C11.6741 75.4702 11.367 76.7202 11.2418 77.9948C10.9873 82.0886 11.9206 85.6521 16.0568 87.6036C16.238 87.7307 16.3902 87.8947 16.5036 88.0848C16.6169 88.2748 16.6887 88.4868 16.7144 88.7066C16.9265 91.4004 17.0962 94.1155 17.1598 96.8094C17.1598 97.2548 17.7113 105.039 17.9446 107.861C17.9146 108.469 18.0158 109.077 18.2416 109.642C19.2173 112.527 18.6658 115.603 21.0839 117.066C24.2486 118.481 27.5652 119.527 30.9685 120.184C32.5806 120.418 38.0744 120.609 38.4774 120.609C44.8408 120.609 51.077 120.481 57.3768 120.439C58.0132 120.439 60.8343 120.439 61.6191 120.439C66.0311 120.163 70.4219 119.718 74.8339 119.569H75.1096L75.343 119.463L76.1066 119.039C76.3823 118.806 77.0399 118.021 76.5732 118.721C77.0893 117.946 77.6944 117.234 78.3762 116.6C83.8302 107.885 87.5937 98.2207 89.4698 88.1127C90.8512 88.8502 92.4415 89.0987 93.9821 88.8175C95.5226 88.5364 96.9226 87.7422 97.9544 86.5642C101.051 83.6582 102.812 80.2007 101.412 75.8099C100.88 74.0027 99.7142 72.4479 98.1284 71.4309C96.5426 70.414 94.6432 70.0031 92.7788 70.2738L93.394 68.8526C94.9 65.3739 96.6181 61.9801 98.1453 58.5014ZM12.366 80.1796C12.0054 76.3191 13.9357 71.8222 16.4174 71.4192C16.4174 76.4039 16.5447 81.3038 16.6083 86.2673C14.2962 85.843 12.663 83.3613 12.366 80.1796ZM77.252 116.239C76.899 116.877 76.3831 117.409 75.757 117.781C75.1309 118.154 74.4171 118.354 73.6885 118.36C62.2995 119.374 50.8635 119.764 39.4319 119.527C34.7654 119.378 30.12 118.53 25.4747 117.978C24.9619 117.869 24.4584 117.72 23.9687 117.533C22.9806 117.302 22.0888 116.769 21.4163 116.009C20.7437 115.25 20.3237 114.3 20.2143 113.291C19.7618 109.473 19.3092 105.662 18.8567 101.858C17.4677 86.7809 17.2336 71.62 18.1568 56.5075C18.3543 49.6236 19.3364 42.7846 21.0839 36.1232C21.2053 35.4136 21.5439 34.7591 22.053 34.25C22.5621 33.7409 23.2166 33.4023 23.9263 33.2809C38.0319 30.8628 52.1588 28.4235 66.3493 26.0902C68.6111 25.8563 70.8844 25.75 73.1582 25.772C73.8403 25.7107 74.5255 25.8508 75.1287 26.175C75.732 26.4993 76.2269 26.9935 76.552 27.5962C80.6344 34.3492 83.7745 41.6284 85.8851 49.2319C88.9847 59.2291 90.165 69.7224 89.3638 80.1583C88.3378 92.9749 84.1786 105.343 77.252 116.175V116.239ZM94.9 71.4616C96.4028 71.7215 97.7796 72.465 98.8211 73.5792C99.8625 74.6934 100.512 76.1172 100.67 77.6342C100.746 79.7292 100.176 81.7971 99.0381 83.5576C97.8998 85.3181 96.2479 86.6861 94.3061 87.4763C93.5336 87.6921 92.7256 87.7498 91.9304 87.646C90.4031 87.4551 90.0638 86.7551 90.2122 85.2279C90.5304 81.834 90.8698 78.4402 91.0395 75.0464C91.0183 72.1616 91.994 71.1859 94.9 71.4616Z" fill="black"/>
<path d="M85.8218 49.0621C83.7112 41.4586 80.5711 34.1793 76.4887 27.4264C76.1636 26.8236 75.6687 26.3295 75.0654 26.0052C74.4622 25.681 73.777 25.5409 73.0949 25.6022C70.8211 25.5802 68.5478 25.6864 66.286 25.9204C52.1591 28.2536 38.0323 30.693 23.863 33.1111C23.1533 33.2325 22.4988 33.5711 21.9897 34.0801C21.4806 34.5892 21.142 35.2438 21.0206 35.9534C19.2731 42.6148 18.2911 49.4537 18.0935 56.3377C17.1704 71.4501 17.4044 86.6111 18.7934 101.688C19.2601 105.478 19.7126 109.289 20.151 113.121C20.2605 114.13 20.6804 115.08 21.353 115.84C22.0255 116.6 22.9174 117.132 23.9054 117.363C24.3951 117.55 24.8986 117.699 25.4114 117.809C30.0567 118.36 34.7021 119.209 39.3686 119.357C50.8002 119.594 62.2362 119.204 73.6252 118.19C74.3538 118.184 75.0676 117.984 75.6937 117.612C76.3198 117.239 76.8357 116.707 77.1887 116.069C84.1258 105.169 88.2643 92.7241 89.2368 79.84C90.0399 69.4573 88.8813 59.0162 85.8218 49.0621ZM58.8408 31.5414C59.371 29.7809 60.5589 29.6112 61.9589 30.7778C63.9796 32.5114 66.1047 34.1194 68.3223 35.5928C70.4167 36.8711 72.9117 37.3248 75.3221 36.8655C78.1432 36.4413 79.2038 37.7564 78.3341 40.5139C78.3341 40.6412 78.3341 40.7684 78.1857 40.9169C76.7008 44.735 75.8736 45.1592 71.8222 44.6713C68.0848 44.167 64.5411 42.7057 61.5346 40.429C60.661 39.8563 59.9285 39.0931 59.3922 38.1967C58.8558 37.3003 58.5295 36.294 58.4377 35.2534C58.4764 34.0076 58.6111 32.7665 58.8408 31.5414ZM26.175 40.4079H26.8538C28.5678 40.2838 30.239 39.8138 31.7664 39.0264C33.2939 38.239 34.6461 37.1503 35.7414 35.8262C36.7528 34.6981 37.7016 33.5156 38.5838 32.2838C39.7504 30.799 41.1079 30.799 41.8928 32.4747C42.8897 34.5959 43.5897 38.8382 41.0655 41.426C37.9714 44.6698 33.998 46.9403 29.6325 47.9592C29.1932 48.1306 28.7238 48.2115 28.2525 48.197C27.7812 48.1825 27.3177 48.0729 26.8897 47.8747C26.4618 47.6766 26.0783 47.3941 25.7623 47.0441C25.4463 46.6941 25.2043 46.2839 25.0508 45.838C24.6476 45.088 24.2864 44.3161 23.969 43.526C23.2903 41.5109 23.9903 40.5776 26.175 40.4079ZM25.0933 89.4913H24.5205C24.7327 86.1823 24.9236 82.852 25.1145 79.4582C26.3447 80.8794 26.3023 83.9551 25.0933 89.4913ZM27.4477 88.8973H26.8962C27.1084 85.6732 27.3205 82.4278 27.5538 78.8219C28.6729 82.0935 28.6354 85.65 27.4477 88.8973ZM25.8144 65.2677C26.1483 64.8956 26.4532 64.4984 26.7265 64.0798C27.0474 63.6472 27.2386 63.1323 27.278 62.5951C26.825 59.9916 27.3218 57.3119 28.678 55.0438C29.4032 53.7825 30.4452 52.7324 31.7007 51.9974C32.9563 51.2623 34.382 50.8678 35.8369 50.8528C37.2917 50.8378 38.7252 51.2028 39.9957 51.9118C41.2662 52.6208 42.3295 53.6492 43.0806 54.8953C44.157 56.3822 44.8839 58.0929 45.2071 59.8999C45.5303 61.7069 45.4415 63.5635 44.9472 65.3314C44.8274 65.9756 44.7565 66.6279 44.7351 67.2828C44.3841 67.1218 44.056 66.9149 43.7594 66.6677C42.6779 65.328 41.2585 64.3012 39.6476 63.6934C38.0368 63.0856 36.2929 62.9188 34.596 63.2102C32.1405 63.6546 29.7224 64.2857 27.3629 65.098C26.8542 65.2092 26.3351 65.2661 25.8144 65.2677ZM32.6446 88.4519C31.9446 85.2278 32.8779 82.0885 33.0476 78.8431C33.9561 82.0053 33.8147 85.3769 32.6446 88.4519ZM35.6566 88.7064C34.9566 85.4399 35.8475 82.2157 36.0384 78.9704C37.2899 82.2794 36.4414 85.4823 35.6566 88.7064ZM65.2042 102.833C64.5883 105.268 63.8233 107.662 62.9134 110.003C62.4774 111.246 61.6942 112.338 60.6567 113.15C59.6191 113.962 58.3706 114.46 57.059 114.584C52.0902 115.385 47.0026 114.999 42.2109 113.46C41.5342 113.309 40.9304 112.929 40.5014 112.384C40.0724 111.839 39.8447 111.163 39.8565 110.469C39.8565 108.857 39.4959 107.267 39.305 105.676H39.0292C39.0292 99.8 39.0292 93.9245 39.2838 88.0489C39.5007 85.3633 40.0933 82.7215 41.0443 80.2006C41.2873 79.568 41.6546 78.9906 42.1246 78.5023C42.5946 78.0141 43.1577 77.6251 43.7806 77.3583C49.0415 75.3503 54.7648 74.8795 60.2831 76.0008C61.9596 76.3179 63.4828 77.1844 64.612 78.4634C65.7413 79.7425 66.4124 81.3613 66.5193 83.0642C67.1849 89.6811 66.7404 96.3628 65.2042 102.833ZM71.8434 86.3732C71.496 83.1434 71.6606 79.8791 72.3313 76.7007C73.1354 79.9044 72.9505 83.2765 71.801 86.3732H71.8434ZM74.2191 86.0762C73.8896 82.8548 74.0397 79.6023 74.6645 76.425C75.4913 79.6164 75.321 82.9845 74.1767 86.0762H74.2191ZM79.6917 85.8005H79.1189C79.3311 82.5551 79.522 79.3309 79.7341 76.0856H80.222C80.832 79.3217 80.6353 82.6584 79.6492 85.8005H79.6917ZM69.9344 62.786C68.7212 62.7619 67.5157 62.9823 66.3896 63.4342C65.2635 63.8861 64.24 64.5602 63.38 65.4162C63.0938 65.6559 62.7717 65.8492 62.4255 65.9889L61.9376 65.6707C61.9914 63.2888 62.2183 60.914 62.6164 58.5649C63.0335 56.4783 64.1101 54.581 65.6874 53.1526C67.2646 51.7243 69.2591 50.8405 71.3768 50.6318C73.4332 50.4544 75.4794 51.0727 77.0935 52.3592C78.7076 53.6457 79.7666 55.5025 80.0523 57.5467C80.3173 59.3115 80.3173 61.106 80.0523 62.8708C80.0523 63.7617 79.7765 64.3768 80.731 64.8435C81.028 64.9708 81.0916 65.5435 81.2613 65.9041C80.8833 65.9466 80.5005 65.9106 80.1371 65.798C77.1034 63.7849 73.5324 62.7351 69.8919 62.786H69.9344ZM82.6613 85.7156C81.8977 82.3218 82.7885 78.9916 83.0219 75.6401C83.9385 78.9617 83.7826 82.4879 82.5764 85.7156H82.6613Z" fill="white"/>
<path d="M91.7612 87.6459C92.5564 87.7497 93.3645 87.6919 94.1369 87.4761C96.0787 86.6859 97.7306 85.3179 98.8689 83.5574C100.007 81.7969 100.577 79.7291 100.5 77.634C100.342 76.1171 99.6933 74.6932 98.6519 73.5791C97.6105 72.4649 96.2336 71.7213 94.7308 71.4615C91.8884 71.1857 90.9127 72.1615 90.7642 75.0462C90.5946 78.4401 90.2552 81.8339 89.937 85.2277C89.8946 86.7549 90.2339 87.455 91.7612 87.6459ZM93.8823 76.6159C93.2255 77.6149 92.678 78.6816 92.249 79.7976C92.2334 80.1752 92.3013 80.5517 92.448 80.9C92.5946 81.2484 92.8164 81.56 93.0975 81.8127C93.3605 81.9815 93.6625 82.08 93.9745 82.0986C94.2865 82.1171 94.5981 82.0552 94.8793 81.9187C95.1741 81.7246 95.4157 81.46 95.5824 81.1489C95.7491 80.8377 95.8355 80.4899 95.8338 80.137C95.8338 79.6703 94.752 79.3734 94.1157 79.0976C93.8823 79.0976 93.5005 79.2249 93.1611 79.3098C93.4001 78.8624 93.8055 78.527 94.2898 78.3761C94.774 78.2253 95.2982 78.2711 95.7489 78.5037C96.2035 78.6909 96.579 79.0301 96.8111 79.4634C97.0432 79.8968 97.1177 80.3973 97.0216 80.8794C96.887 81.6053 96.5089 82.2635 95.9497 82.7456C95.3906 83.2276 94.6838 83.5046 93.946 83.5308C93.2552 83.5551 92.5781 83.3342 92.0346 82.9071C91.491 82.4801 91.1162 81.8745 90.9764 81.1975C90.7656 80.2142 90.9469 79.1873 91.4817 78.3356C92.0165 77.4839 92.8626 76.8745 93.8399 76.6371L93.8823 76.6159Z" fill="white"/>
<path d="M16.4181 71.4192L16.609 86.2672C14.4879 85.8854 12.6637 83.4037 12.3667 80.222C12.0061 76.319 13.9364 71.8222 16.4181 71.4192Z" fill="white"/>
<path d="M39.8986 110.576C39.8868 111.269 40.1146 111.945 40.5436 112.49C40.9725 113.035 41.5764 113.415 42.2531 113.566C47.0448 115.106 52.1324 115.491 57.1012 114.691C58.4128 114.566 59.6613 114.069 60.6989 113.257C61.7364 112.445 62.5196 111.352 62.9556 110.109C63.8655 107.768 64.6305 105.374 65.2464 102.939C66.8134 96.4669 67.2866 89.7778 66.6464 83.1491C66.5394 81.4462 65.8683 79.8275 64.739 78.5484C63.6098 77.2693 62.0867 76.4028 60.4102 76.0856C54.8919 74.9644 49.1685 75.4352 43.9076 77.4432C43.2847 77.71 42.7216 78.0991 42.2516 78.5873C41.7817 79.0755 41.4143 79.6529 41.1713 80.2855C40.2203 82.8064 39.6277 85.4483 39.4108 88.1338C39.1138 94.0094 39.2199 99.885 39.1562 105.761H39.432C39.5381 107.267 39.7502 108.857 39.8986 110.576ZM42.0198 80.7522C42.2575 80.0948 42.6622 79.5106 43.194 79.0569C43.7258 78.6032 44.3664 78.2956 45.053 78.1644C48.9182 76.9841 52.9586 76.4817 56.9951 76.6796C58.4453 76.7813 59.8736 77.0884 61.2374 77.5917C62.37 77.9505 63.374 78.6307 64.1271 79.5495C64.8803 80.4684 65.3502 81.5863 65.4797 82.7673C65.6735 84.0818 65.7939 85.406 65.8403 86.7339C65.8403 87.2217 65.5646 88.0702 65.2252 88.1762C65.0248 88.2674 64.8073 88.3147 64.5872 88.3151C64.3671 88.3156 64.1494 88.2691 63.9487 88.1788C63.748 88.0884 63.5688 87.9564 63.4232 87.7913C63.2775 87.6263 63.1687 87.4321 63.104 87.2217C62.8951 86.5947 62.7181 85.9576 62.5738 85.3127C62.4723 84.7206 62.2053 84.1693 61.8037 83.7226C61.402 83.2759 60.8821 82.9521 60.3041 82.7885C55.6447 81.4112 50.7023 81.3014 45.9864 82.4703C45.4823 82.6356 45.0585 82.9837 44.7985 83.446H46.1136C46.1136 83.5521 46.2833 83.5733 46.2833 83.6158C47.1742 86.7339 46.8772 87.158 43.6531 87.2853C42.7198 87.2853 41.7865 87.2853 40.3865 87.2853C40.9592 84.7187 41.4259 82.64 42.0834 80.6462L42.0198 80.7522ZM41.0865 109.07C48.0358 109.972 55.0827 109.8 61.9798 108.56C61.8258 109.8 61.2693 110.955 60.3957 111.848C59.522 112.74 58.3796 113.322 57.1436 113.503C52.2278 114.411 47.1599 114.016 42.444 112.357C41.1289 111.806 40.8744 111.106 41.1501 108.963L41.0865 109.07Z" fill="#942C27"/>
<path d="M58.2891 35.296C58.3535 34.0337 58.5166 32.7783 58.7769 31.5415C59.3072 29.7809 60.4951 29.6325 61.895 30.7779C63.9158 32.5115 66.0409 34.1195 68.2585 35.5929C70.3529 36.8712 72.8479 37.3249 75.2583 36.8656C78.0794 36.4414 79.14 37.7565 78.2703 40.514C78.2703 40.6413 78.2703 40.7685 78.1218 40.917C76.637 44.7351 75.8098 45.1593 71.7584 44.6714C68.021 44.1671 64.4773 42.7058 61.4708 40.4291C60.5867 39.8699 59.841 39.1174 59.2899 38.2282C58.7388 37.3391 58.3966 36.3365 58.2891 35.296Z" fill="black"/>
<path d="M26.8538 40.3867C28.5678 40.2626 30.239 39.7927 31.7664 39.0053C33.2939 38.2178 34.6461 37.1292 35.7414 35.805C36.7528 34.677 37.7016 33.4944 38.5838 32.2627C39.7504 30.7779 41.108 30.7779 41.8928 32.4536C42.8897 34.5748 43.5897 38.8171 41.0655 41.4049C37.9714 44.6487 33.998 46.9191 29.6325 47.938C29.1932 48.1094 28.7238 48.1903 28.2525 48.1758C27.7812 48.1613 27.3177 48.0518 26.8897 47.8537C26.4618 47.6555 26.0783 47.373 25.7623 47.0229C25.4463 46.6729 25.2043 46.2627 25.0508 45.8169C24.6476 45.0669 24.2864 44.295 23.969 43.5048C23.2903 41.3837 23.969 40.4503 26.0902 40.3231L26.8538 40.3867Z" fill="black"/>
<path d="M44.7351 67.2828C44.3841 67.1218 44.056 66.9149 43.7594 66.6676C42.6779 65.3279 41.2585 64.3012 39.6476 63.6934C38.0368 63.0856 36.2929 62.9188 34.596 63.2102C32.1405 63.6546 29.7224 64.2857 27.3629 65.098C26.8542 65.2092 26.3351 65.2661 25.8145 65.2677C26.1483 64.8956 26.4532 64.4984 26.7265 64.0798C27.0474 63.6471 27.2386 63.1323 27.2781 62.5951C26.825 59.9915 27.3218 57.3119 28.678 55.0438C29.4032 53.7825 30.4452 52.7324 31.7007 51.9973C32.9563 51.2623 34.382 50.8677 35.8369 50.8527C37.2917 50.8377 38.7253 51.2028 39.9957 51.9118C41.2662 52.6208 42.3295 53.6492 43.0806 54.8953C44.157 56.3822 44.8839 58.0929 45.2071 59.8999C45.5303 61.7068 45.4415 63.5635 44.9472 65.3314C44.8274 65.9756 44.7565 66.6279 44.7351 67.2828ZM41.1716 54.5559C39.8565 57.1437 38.5838 58.0346 36.4202 57.7376C33.5779 57.3346 32.8142 55.2559 32.7082 52.7317C29.1871 54.4074 27.0659 60.2406 28.9113 63.1041C34.0445 61.386 39.0929 61.1527 43.7594 64.6313C44.283 62.8887 44.3186 61.0357 43.8623 59.2742C43.4061 57.5127 42.4754 55.9101 41.1716 54.6407V54.5559Z" fill="black"/>
<path d="M61.8955 65.6709C61.9493 63.289 62.1762 60.9141 62.5743 58.5651C62.9914 56.4785 64.068 54.5812 65.6452 53.1528C67.2225 51.7245 69.217 50.8407 71.3346 50.632C73.398 50.4431 75.4549 51.0562 77.0782 52.3438C78.7016 53.6314 79.7667 55.4947 80.0525 57.5469C80.3176 59.3117 80.3176 61.1062 80.0525 62.871C80.0525 63.7619 79.7768 64.377 80.7313 64.8437C81.0283 64.971 81.0919 65.5437 81.2616 65.9043C80.8836 65.9468 80.5008 65.9108 80.1374 65.7982C77.1157 63.7933 73.5607 62.7438 69.9347 62.7862C68.7215 62.7621 67.516 62.9825 66.3899 63.4344C65.2638 63.8863 64.2403 64.5604 63.3803 65.4164C63.0941 65.6561 62.772 65.8494 62.4258 65.9891L61.8955 65.6709ZM78.5253 63.5498C80.2435 59.6044 78.5253 53.7712 75.4709 52.944C74.9618 55.8712 73.9861 57.1863 71.8861 57.4197C71.3235 57.5159 70.7472 57.4976 70.1919 57.3659C69.6365 57.2341 69.1134 56.9916 68.6539 56.653C68.1945 56.3143 67.8081 55.8864 67.5179 55.3949C67.2277 54.9034 67.0397 54.3584 66.9651 53.7925C64.2288 55.6591 62.341 60.8983 63.4227 63.6346C68.4074 60.5802 73.4346 61.3013 78.5253 63.6134V63.5498Z" fill="black"/>
<path d="M82.9373 75.6401C82.704 78.9916 81.8131 82.3218 82.5767 85.7156C83.755 82.4789 83.8812 78.9528 82.9373 75.6401Z" fill="black"/>
<path d="M72.2889 76.6372C71.6183 79.8156 71.4536 83.0799 71.801 86.3096C72.9365 83.2087 73.1066 79.8367 72.2889 76.6372Z" fill="black"/>
<path d="M80.1792 76.0432H79.6913C79.4792 79.2886 79.2883 82.5127 79.0762 85.7581H79.6489C80.6208 82.6125 80.8029 79.2759 80.1792 76.0432Z" fill="black"/>
<path d="M36.0386 78.9705C37.2901 82.2795 36.4416 85.4824 35.6568 88.7065C34.9568 85.44 35.8477 82.2158 36.0386 78.9705Z" fill="black"/>
<path d="M24.5205 89.5126L25.1144 79.4795C26.3447 80.837 26.3023 83.9551 25.1144 89.4913L24.5205 89.5126Z" fill="black"/>
<path d="M33.0477 78.7583C33.9563 81.9205 33.8149 85.2921 32.6447 88.3671C31.9447 85.2278 32.878 82.0461 33.0477 78.7583Z" fill="black"/>
<path d="M74.6222 76.425C73.9974 79.6024 73.8473 82.8549 74.1768 86.0763C75.3071 82.9802 75.4626 79.6122 74.6222 76.425Z" fill="black"/>
<path d="M26.8965 88.855L27.554 78.7795C28.7174 82.0519 28.7174 85.6251 27.554 88.8974L26.8965 88.855Z" fill="black"/>
<path d="M94.0309 83.5309C94.7538 83.4861 95.441 83.2007 95.9829 82.7202C96.5249 82.2398 96.8906 81.5918 97.0218 80.8795C97.1098 80.3816 97.0172 79.8687 96.7605 79.4331C96.5038 78.9975 96.1 78.668 95.6218 78.5038C95.1711 78.2712 94.6469 78.2254 94.1626 78.3762C93.6784 78.5271 93.2729 78.8625 93.034 79.3099C93.3734 79.3099 93.7552 79.0129 93.9885 79.0977C94.6249 79.3735 95.6218 79.6704 95.7066 80.1371C95.7083 80.49 95.6219 80.8379 95.4553 81.149C95.2886 81.4601 95.0469 81.7247 94.7521 81.9188C94.4709 82.0553 94.1594 82.1172 93.8474 82.0987C93.5354 82.0801 93.2334 81.9817 92.9704 81.8128C92.6893 81.5601 92.4675 81.2485 92.3208 80.9001C92.1742 80.5518 92.1062 80.1753 92.1219 79.7977C92.5508 78.6817 93.0984 77.615 93.7552 76.616C92.7891 76.8715 91.9597 77.4917 91.4415 78.3462C90.9232 79.2007 90.7566 80.2228 90.9765 81.1977C91.1184 81.8897 91.5057 82.507 92.0671 82.9359C92.6285 83.3647 93.326 83.576 94.0309 83.5309Z" fill="black"/>
<path d="M46.2198 83.4884C46.2198 83.4884 46.2198 83.4884 46.0501 83.3187H44.6926C44.9526 82.8564 45.3764 82.5083 45.8804 82.343C50.5964 81.174 55.5388 81.2839 60.1982 82.6612C60.7762 82.8247 61.2961 83.1486 61.6977 83.5953C62.0994 84.042 62.3664 84.5933 62.4678 85.1853C62.6122 85.8302 62.7892 86.4674 62.9981 87.0944C63.0628 87.3048 63.1716 87.499 63.3172 87.664C63.4629 87.829 63.642 87.9611 63.8428 88.0514C64.0435 88.1418 64.2612 88.1883 64.4813 88.1878C64.7014 88.1874 64.9189 88.14 65.1193 88.0489C65.4586 87.9428 65.7556 87.0944 65.7344 86.6065C65.6879 85.2787 65.5675 83.9544 65.3738 82.6399C65.2443 81.4589 64.7744 80.3411 64.0212 79.4222C63.268 78.5034 62.2641 77.8232 61.1315 77.4644C59.7677 76.9611 58.3393 76.654 56.8892 76.5522C52.8526 76.3544 48.8123 76.8568 44.9471 78.0371C44.2605 78.1683 43.6199 78.4759 43.0881 78.9296C42.5563 79.3833 42.1516 79.9675 41.9139 80.6249C41.2563 82.6188 40.7897 84.6975 40.1533 86.9883C41.5533 86.9883 42.4866 87.0944 43.4199 86.9883C46.8137 87.0308 47.1107 86.6065 46.2198 83.4884Z" fill="white"/>
<path d="M42.5082 112.251C47.2241 113.91 52.2919 114.304 57.2077 113.397C58.4437 113.216 59.5862 112.634 60.4598 111.742C61.3334 110.849 61.89 109.694 62.044 108.454C55.1468 109.694 48.1 109.866 41.1506 108.963C40.8749 111.106 41.1294 111.806 42.5082 112.251Z" fill="white"/>
<path d="M41.172 54.6409C42.4874 55.9202 43.4233 57.5385 43.8763 59.3166C44.3292 61.0948 44.2816 62.9636 43.7386 64.7163C39.0932 61.2377 34.0449 61.471 28.8905 63.1891C27.0451 60.3256 29.1663 54.4924 32.6874 52.8167C32.6874 55.3408 33.557 57.4196 36.3994 57.8226C38.5842 58.1196 39.8568 57.2287 41.172 54.6409Z" fill="white"/>
<path d="M78.5247 63.6132C73.4339 61.3011 68.4068 60.5799 63.4221 63.6132C62.3403 60.8769 64.2282 55.6377 66.9644 53.7711C67.039 54.3369 67.2271 54.882 67.5173 55.3735C67.8075 55.865 68.1939 56.2929 68.6533 56.6316C69.1128 56.9702 69.6359 57.2127 70.1913 57.3444C70.7466 57.4761 71.3229 57.4944 71.8855 57.3982C74.0067 57.1225 74.9612 55.8498 75.4702 52.9226C78.4823 53.8347 80.2428 59.6678 78.5247 63.6132Z" fill="white"/>
</g>
<defs>
<clipPath id="clip0_128_307">
<rect width="104" height="131.639" fill="white"/>
</clipPath>
</defs>
</svg>
