<svg width="50" height="63" viewBox="0 0 50 63" fill="none" xmlns="http://www.w3.org/2000/svg">
<g clip-path="url(#clip0_107_838)">
<path d="M20.8404 48.75C20.8404 47.7 17.0404 37.92 14.4104 31.35C13.9091 31.4587 13.3904 31.4596 12.8887 31.3528C12.387 31.2459 11.9138 31.0336 11.5004 30.73C10.4499 29.983 9.20386 29.5594 7.91572 29.5114C6.62758 29.4634 5.35352 29.7931 4.25036 30.46C3.14328 31.0856 2.19498 31.9576 1.47883 33.0085C0.762673 34.0593 0.297861 35.2608 0.12036 36.52C-0.289465 38.5074 0.0882777 40.5763 1.17397 42.2906C2.25967 44.005 3.96851 45.2309 5.94036 45.71C6.40036 45.83 6.88036 45.91 7.33036 46C7.33036 46.08 7.33036 46.11 7.33036 46.13C7.2925 46.1845 7.24892 46.2348 7.20036 46.28C6.506 46.799 5.96413 47.4953 5.63158 48.2959C5.29904 49.0964 5.18808 49.9718 5.31036 50.83C5.56242 53.3049 6.68177 55.6109 8.47037 57.34C9.11446 57.9984 9.81367 58.6006 10.5604 59.14C11.1004 59.53 11.6604 59.88 12.2304 60.22C13.4504 53.9 20.7404 50.13 20.8404 48.75Z" fill="black"/>
<path d="M45.8697 48.75C45.9197 47.7 42.0797 37.92 39.4497 31.35C38.9468 31.4583 38.4267 31.459 37.9234 31.3522C37.4202 31.2453 36.9452 31.0333 36.5297 30.73C35.4812 29.9826 34.2368 29.5588 32.9501 29.5108C31.6635 29.4628 30.3909 29.7928 29.2897 30.46C28.1826 31.0857 27.2343 31.9577 26.5182 33.0085C25.802 34.0593 25.3372 35.2608 25.1597 36.52C24.7469 38.5063 25.1222 40.5752 26.2063 42.2899C27.2904 44.0047 28.9984 45.231 30.9697 45.71C31.4397 45.83 31.9697 45.91 32.3697 46C32.3697 46.08 32.3697 46.11 32.3697 46.13C32.3318 46.1845 32.2883 46.2348 32.2397 46.28C31.5451 46.7993 31.0025 47.4953 30.6683 48.2955C30.3342 49.0958 30.2207 49.971 30.3397 50.83C30.5953 53.306 31.7181 55.6119 33.5097 57.34C34.1516 58.0008 34.851 58.6032 35.5997 59.14C36.1372 59.5288 36.6946 59.8893 37.2697 60.22C38.4797 53.9 45.8197 50.13 45.8697 48.75Z" fill="black"/>
<path d="M6.82024 55.24C6.82024 55.24 12.0302 64.31 15.8202 61.53C17.8703 59.9645 20.1784 58.7698 22.6402 58C22.6402 58 20.3802 47.24 17.2402 45.94C14.1002 44.64 5.24023 50.83 5.24023 50.83L6.82024 55.24Z" fill="black"/>
<path d="M33.2198 56.45C33.2198 56.45 26.7898 48.21 30.8198 45.7C33.0426 44.3858 35.0189 42.6938 36.6598 40.7C36.6598 40.7 45.7698 46.86 45.7898 50.25C45.8098 53.64 36.7298 59.49 36.7298 59.49L33.2198 56.45Z" fill="black"/>
<path d="M46.2696 27.58C47.6641 24.7504 48.5799 21.7092 48.9796 18.58C49.1196 16.99 48.9796 15.41 47.7096 14.23C46.1093 12.7433 44.1118 11.7533 41.9596 11.38C41.1496 11.24 40.3396 11.16 39.4696 11.05C39.4696 10.77 39.5696 10.52 39.5996 10.26C39.7318 9.51022 39.8053 8.75123 39.8196 7.99C39.7296 4.62 37.9096 3.23 34.8196 2.99C31.7927 2.81368 28.8055 3.74894 26.4196 5.62001C24.2796 7.13001 22.3596 6.62 21.2696 4.24C20.7986 3.04058 19.9874 2.00499 18.9356 1.26057C17.8838 0.516149 16.6374 0.0953893 15.3496 0.0500294C14.0804 -0.0314471 12.8094 0.180548 11.6354 0.669597C10.4613 1.15865 9.41567 1.91158 8.5796 2.87001C7.1461 4.30609 6.32778 6.24371 6.29792 8.27259C6.26805 10.3015 7.02899 12.2623 8.41961 13.74C8.74961 14.09 9.09961 14.42 9.41961 14.74C9.40207 14.7812 9.38203 14.8213 9.35961 14.86C9.29908 14.8859 9.23505 14.9028 9.16961 14.91C8.30321 14.9667 7.46783 15.2545 6.75031 15.7434C6.03279 16.2323 5.45935 16.9044 5.08961 17.69C3.94495 19.8999 3.62245 22.4445 4.17961 24.87C4.3586 25.7741 4.61624 26.6608 4.94961 27.52C5.46895 28.8487 6.10827 30.1273 6.85961 31.34L7.85961 33.02C7.36355 33.1442 6.90747 33.3931 6.53467 33.7432C6.16188 34.0932 5.88475 34.5328 5.7296 35.02C5.50342 35.5798 5.35861 36.1692 5.2996 36.77C5.1796 38.7 5.61961 40.38 7.56961 41.3C7.65502 41.36 7.72679 41.4372 7.78022 41.5269C7.83364 41.6165 7.86751 41.7164 7.87961 41.82C7.97961 43.09 8.05961 44.37 8.08961 45.64C8.08961 45.85 8.34961 49.52 8.45961 50.85C8.44543 51.1368 8.49318 51.4233 8.59961 51.69C9.05961 53.05 8.7996 54.5 9.9396 55.19C11.4316 55.8567 12.9951 56.35 14.5996 56.66C15.3596 56.77 17.9496 56.86 18.1396 56.86C21.1396 56.86 24.0796 56.8 27.0496 56.78C27.3496 56.78 28.6796 56.78 29.0496 56.78C31.1296 56.65 33.1996 56.44 35.2796 56.37H35.4096L35.5196 56.32L35.8796 56.12C36.0096 56.01 36.3196 55.64 36.0996 55.97C36.3429 55.6046 36.6282 55.269 36.9496 54.97C39.5209 50.8615 41.2951 46.3054 42.1796 41.54C42.8309 41.8877 43.5806 42.0049 44.3069 41.8723C45.0331 41.7398 45.6932 41.3654 46.1796 40.81C47.6396 39.44 48.4696 37.81 47.8096 35.74C47.5589 34.888 47.0093 34.155 46.2616 33.6755C45.514 33.1961 44.6185 33.0024 43.7396 33.13L44.0296 32.46C44.7396 30.82 45.5496 29.22 46.2696 27.58ZM5.8296 37.8C5.6596 35.98 6.56961 33.86 7.73961 33.67C7.73961 36.02 7.7996 38.33 7.8296 40.67C6.7396 40.47 5.9696 39.3 5.8296 37.8ZM36.4196 54.8C36.2532 55.1005 36.01 55.3514 35.7148 55.5271C35.4196 55.7028 35.0831 55.797 34.7396 55.8C29.3704 56.2781 23.9789 56.4616 18.5896 56.35C16.3896 56.28 14.1996 55.88 12.0096 55.62C11.7679 55.5685 11.5305 55.4983 11.2996 55.41C10.8338 55.301 10.4133 55.05 10.0963 54.6918C9.77922 54.3335 9.58122 53.8856 9.52961 53.41C9.31627 51.61 9.10294 49.8134 8.88961 48.02C8.23474 40.9122 8.12441 33.7647 8.55961 26.64C8.65276 23.3946 9.11575 20.1705 9.9396 17.03C9.99683 16.6954 10.1565 16.3869 10.3965 16.1469C10.6365 15.9069 10.945 15.7472 11.2796 15.69C17.9296 14.55 24.5896 13.4 31.2796 12.3C32.3459 12.1897 33.4176 12.1396 34.4896 12.15C34.8112 12.1211 35.1342 12.1871 35.4186 12.34C35.703 12.4929 35.9363 12.7258 36.0896 13.01C38.0142 16.1936 39.4946 19.6254 40.4896 23.21C41.9509 27.9231 42.5074 32.8701 42.1296 37.79C41.6459 43.8323 39.6851 49.6632 36.4196 54.77V54.8ZM44.7396 33.69C45.4481 33.8125 46.0972 34.1631 46.5882 34.6883C47.0792 35.2136 47.3851 35.8849 47.4596 36.6C47.4956 37.5877 47.2271 38.5626 46.6905 39.3926C46.1539 40.2225 45.3751 40.8675 44.4596 41.24C44.0955 41.3417 43.7145 41.369 43.3396 41.32C42.6196 41.23 42.4596 40.9 42.5296 40.18C42.6796 38.58 42.8396 36.98 42.9196 35.38C42.9096 34.02 43.3696 33.56 44.7396 33.69Z" fill="black"/>
<path d="M40.46 23.13C39.465 19.5454 37.9846 16.1136 36.06 12.93C35.9067 12.6458 35.6734 12.4129 35.389 12.26C35.1046 12.1071 34.7816 12.0411 34.46 12.07C33.388 12.0596 32.3163 12.1097 31.25 12.22C24.59 13.32 17.93 14.47 11.25 15.61C10.9154 15.6672 10.6068 15.8268 10.3668 16.0668C10.1268 16.3069 9.96721 16.6154 9.90998 16.95C9.08612 20.0904 8.62313 23.3146 8.52998 26.56C8.09479 33.6846 8.20511 40.8321 8.85998 47.94C9.07998 49.7266 9.29331 51.5233 9.49998 53.33C9.55159 53.8056 9.74959 54.2535 10.0666 54.6117C10.3837 54.97 10.8042 55.221 11.27 55.33C11.5008 55.4183 11.7382 55.4885 11.98 55.54C14.17 55.8 16.36 56.2 18.56 56.27C23.9493 56.3816 29.3407 56.198 34.71 55.72C35.0535 55.717 35.39 55.6228 35.6852 55.4471C35.9803 55.2714 36.2236 55.0205 36.39 54.72C39.6604 49.581 41.6115 43.7141 42.07 37.64C42.4486 32.7452 41.9024 27.8228 40.46 23.13ZM27.74 14.87C27.99 14.04 28.55 13.96 29.21 14.51C30.1626 15.3273 31.1645 16.0854 32.21 16.78C33.1974 17.3826 34.3736 17.5965 35.51 17.38C36.84 17.18 37.34 17.8 36.93 19.1C36.93 19.16 36.93 19.22 36.86 19.29C36.16 21.09 35.77 21.29 33.86 21.06C32.098 20.8222 30.4274 20.1333 29.01 19.06C28.5981 18.79 28.2528 18.4302 27.9999 18.0076C27.7471 17.585 27.5932 17.1105 27.55 16.62C27.5682 16.0326 27.6317 15.4476 27.74 14.87ZM12.34 19.05H12.66C13.468 18.9915 14.2559 18.77 14.976 18.3987C15.6961 18.0275 16.3336 17.5143 16.85 16.89C17.3268 16.3582 17.7741 15.8007 18.19 15.22C18.74 14.52 19.38 14.52 19.75 15.31C20.22 16.31 20.55 18.31 19.36 19.53C17.9013 21.0592 16.0281 22.1297 13.97 22.61C13.7629 22.6908 13.5416 22.729 13.3194 22.7221C13.0972 22.7153 12.8787 22.6636 12.6769 22.5702C12.4752 22.4768 12.2944 22.3436 12.1454 22.1786C11.9964 22.0136 11.8823 21.8202 11.81 21.61C11.6199 21.2564 11.4496 20.8925 11.3 20.52C10.98 19.57 11.31 19.13 12.34 19.05ZM11.83 42.19H11.56C11.66 40.63 11.75 39.06 11.84 37.46C12.42 38.13 12.4 39.58 11.83 42.19ZM12.94 41.91H12.68C12.78 40.39 12.88 38.86 12.99 37.16C13.5176 38.7024 13.4999 40.3791 12.94 41.91ZM12.17 30.77C12.3274 30.5946 12.4711 30.4073 12.6 30.21C12.7512 30.006 12.8414 29.7632 12.86 29.51C12.6464 28.2826 12.8806 27.0193 13.52 25.95C13.8619 25.3554 14.3531 24.8603 14.945 24.5138C15.537 24.1672 16.2091 23.9812 16.895 23.9742C17.5808 23.9671 18.2567 24.1392 18.8556 24.4735C19.4546 24.8077 19.9559 25.2925 20.31 25.88C20.8174 26.581 21.1601 27.3875 21.3125 28.2394C21.4649 29.0912 21.423 29.9666 21.19 30.8C21.1335 31.1037 21.1 31.4112 21.09 31.72C20.9245 31.6441 20.7698 31.5465 20.63 31.43C20.1201 30.7984 19.451 30.3143 18.6915 30.0278C17.9321 29.7412 17.11 29.6626 16.31 29.8C15.1523 30.0095 14.0124 30.307 12.9 30.69C12.6602 30.7424 12.4155 30.7692 12.17 30.77ZM15.39 41.7C15.06 40.18 15.5 38.7 15.58 37.17C16.0083 38.6608 15.9416 40.2503 15.39 41.7ZM16.81 41.82C16.48 40.28 16.9 38.76 16.99 37.23C17.58 38.79 17.18 40.3 16.81 41.82ZM30.74 48.48C30.4496 49.6277 30.0889 50.7565 29.66 51.86C29.4544 52.4461 29.0852 52.9611 28.5961 53.3439C28.1069 53.7267 27.5183 53.9613 26.9 54.02C24.5575 54.3972 22.159 54.2156 19.9 53.49C19.5809 53.4186 19.2963 53.2394 19.094 52.9826C18.8918 52.7257 18.7844 52.4069 18.79 52.08C18.79 51.32 18.62 50.57 18.53 49.82H18.4C18.4 47.05 18.4 44.28 18.52 41.51C18.6222 40.2439 18.9016 38.9984 19.35 37.81C19.4645 37.5117 19.6377 37.2395 19.8593 37.0094C20.0808 36.7792 20.3463 36.5958 20.64 36.47C23.1202 35.5233 25.8184 35.3014 28.42 35.83C29.2104 35.9795 29.9284 36.388 30.4608 36.991C30.9932 37.594 31.3096 38.3572 31.36 39.16C31.6738 42.2795 31.4642 45.4295 30.74 48.48ZM33.87 40.72C33.7062 39.1974 33.7838 37.6584 34.1 36.16C34.4791 37.6704 34.3919 39.2601 33.85 40.72H33.87ZM34.99 40.58C34.8347 39.0613 34.9054 37.5279 35.2 36.03C35.5897 37.5345 35.5095 39.1224 34.97 40.58H34.99ZM37.57 40.45H37.3C37.4 38.92 37.49 37.4 37.59 35.87H37.82C38.1076 37.3956 38.0148 38.9687 37.55 40.45H37.57ZM32.97 29.6C32.3981 29.5886 31.8297 29.6926 31.2988 29.9056C30.7679 30.1186 30.2854 30.4364 29.88 30.84C29.745 30.953 29.5932 31.0441 29.43 31.11L29.2 30.96C29.2253 29.837 29.3323 28.7174 29.52 27.61C29.7166 26.6263 30.2242 25.7318 30.9678 25.0584C31.7114 24.385 32.6516 23.9684 33.65 23.87C34.6195 23.7863 35.5841 24.0778 36.3451 24.6844C37.106 25.2909 37.6053 26.1663 37.74 27.13C37.8649 27.962 37.8649 28.808 37.74 29.64C37.74 30.06 37.61 30.35 38.06 30.57C38.2 30.63 38.23 30.9 38.31 31.07C38.1318 31.0901 37.9513 31.0731 37.78 31.02C36.3498 30.0709 34.6663 29.576 32.95 29.6H32.97ZM38.97 40.41C38.61 38.81 39.03 37.24 39.14 35.66C39.5721 37.2259 39.4986 38.8883 38.93 40.41H38.97Z" fill="white"/>
<path d="M43.26 41.32C43.635 41.3689 44.0159 41.3417 44.38 41.24C45.2955 40.8674 46.0743 40.2225 46.6109 39.3925C47.1475 38.5625 47.416 37.5877 47.38 36.6C47.3056 35.8848 46.9996 35.2136 46.5086 34.6883C46.0176 34.163 45.3685 33.8125 44.66 33.69C43.32 33.56 42.86 34.02 42.79 35.38C42.71 36.98 42.55 38.58 42.4 40.18C42.38 40.9 42.54 41.23 43.26 41.32ZM44.26 36.12C43.9504 36.5909 43.6923 37.0938 43.49 37.62C43.4827 37.798 43.5147 37.9755 43.5838 38.1397C43.653 38.3039 43.7575 38.4508 43.89 38.57C44.014 38.6496 44.1564 38.696 44.3035 38.7047C44.4506 38.7135 44.5975 38.6843 44.73 38.62C44.869 38.5284 44.983 38.4037 45.0615 38.257C45.1401 38.1103 45.1808 37.9464 45.18 37.78C45.18 37.56 44.67 37.42 44.37 37.29C44.26 37.29 44.08 37.35 43.92 37.39C44.0327 37.1791 44.2238 37.0209 44.4521 36.9498C44.6804 36.8787 44.9275 36.9003 45.14 37.01C45.3543 37.0982 45.5313 37.2581 45.6408 37.4624C45.7502 37.6667 45.7853 37.9027 45.74 38.13C45.6766 38.4722 45.4983 38.7825 45.2347 39.0098C44.9711 39.237 44.6379 39.3676 44.29 39.38C43.9644 39.3914 43.6452 39.2873 43.3889 39.0859C43.1327 38.8846 42.956 38.5991 42.89 38.28C42.7907 37.8164 42.8762 37.3323 43.1283 36.9307C43.3804 36.5292 43.7793 36.2419 44.24 36.13L44.26 36.12Z" fill="white"/>
<path d="M7.74006 33.67L7.83006 40.67C6.83006 40.49 5.97006 39.32 5.83006 37.82C5.66006 35.98 6.57006 33.86 7.74006 33.67Z" fill="white"/>
<path d="M18.81 52.13C18.8044 52.4568 18.9118 52.7756 19.114 53.0325C19.3162 53.2894 19.6009 53.4686 19.92 53.54C22.179 54.2656 24.5775 54.4472 26.92 54.07C27.5383 54.0113 28.1269 53.7767 28.6161 53.3939C29.1052 53.0111 29.4744 52.4961 29.68 51.91C30.1089 50.8065 30.4696 49.6777 30.76 48.53C31.4987 45.4785 31.7218 42.325 31.42 39.2C31.3695 38.3972 31.0532 37.634 30.5208 37.031C29.9884 36.428 29.2703 36.0195 28.48 35.87C25.8784 35.3413 23.1802 35.5633 20.7 36.51C20.4063 36.6358 20.1408 36.8192 19.9193 37.0493C19.6977 37.2795 19.5245 37.5517 19.41 37.85C18.9616 39.0384 18.6822 40.2839 18.58 41.55C18.44 44.32 18.49 47.09 18.46 49.86H18.59C18.64 50.57 18.74 51.32 18.81 52.13ZM19.81 38.07C19.922 37.7601 20.1128 37.4846 20.3635 37.2707C20.6142 37.0568 20.9163 36.9118 21.24 36.85C23.0622 36.2935 24.967 36.0567 26.87 36.15C27.5536 36.1979 28.227 36.3427 28.87 36.58C29.4039 36.7491 29.8772 37.0698 30.2323 37.503C30.5874 37.9362 30.8089 38.4632 30.87 39.02C30.9613 39.6397 31.0181 40.264 31.04 40.89C31.04 41.12 30.91 41.52 30.75 41.57C30.6555 41.6129 30.553 41.6353 30.4492 41.6355C30.3454 41.6357 30.2428 41.6137 30.1482 41.5712C30.0535 41.5286 29.9691 41.4663 29.9004 41.3885C29.8317 41.3107 29.7805 41.2191 29.75 41.12C29.6515 40.8244 29.568 40.524 29.5 40.22C29.4521 39.9408 29.3263 39.6809 29.1369 39.4704C28.9476 39.2598 28.7025 39.1071 28.43 39.03C26.2333 38.3806 23.9033 38.3289 21.68 38.88C21.4423 38.9579 21.2425 39.122 21.12 39.34H21.74C21.74 39.39 21.82 39.4 21.82 39.42C22.24 40.89 22.1 41.09 20.58 41.15C20.14 41.15 19.7 41.15 19.04 41.15C19.31 39.94 19.53 38.96 19.84 38.02L19.81 38.07ZM19.37 51.42C22.6462 51.8454 25.9684 51.7645 29.22 51.18C29.1474 51.7643 28.885 52.3088 28.4731 52.7297C28.0612 53.1506 27.5226 53.4247 26.94 53.51C24.6224 53.9379 22.2332 53.7518 20.01 52.97C19.39 52.71 19.27 52.38 19.4 51.37L19.37 51.42Z" fill="#942C27"/>
<path d="M27.4805 16.64C27.5108 16.0449 27.5877 15.4531 27.7105 14.87C27.9605 14.04 28.5205 13.97 29.1805 14.51C30.1331 15.3273 31.135 16.0854 32.1805 16.78C33.1679 17.3826 34.3441 17.5965 35.4805 17.38C36.8105 17.18 37.3105 17.8 36.9005 19.1C36.9005 19.16 36.9005 19.22 36.8305 19.29C36.1305 21.09 35.7405 21.29 33.8305 21.06C32.0685 20.8222 30.3979 20.1333 28.9805 19.06C28.5637 18.7963 28.2121 18.4416 27.9523 18.0224C27.6925 17.6032 27.5312 17.1306 27.4805 16.64Z" fill="black"/>
<path d="M12.66 19.04C13.4681 18.9815 14.2559 18.76 14.9761 18.3887C15.6962 18.0175 16.3337 17.5043 16.85 16.88C17.3268 16.3482 17.7742 15.7907 18.19 15.21C18.74 14.51 19.3801 14.51 19.7501 15.3C20.2201 16.3 20.5501 18.3 19.3601 19.52C17.9013 21.0493 16.0281 22.1197 13.9701 22.6C13.763 22.6808 13.5417 22.719 13.3195 22.7121C13.0973 22.7053 12.8787 22.6536 12.677 22.5602C12.4752 22.4668 12.2945 22.3336 12.1455 22.1686C11.9965 22.0036 11.8824 21.8102 11.81 21.6C11.6199 21.2464 11.4497 20.8825 11.3 20.51C10.98 19.51 11.3 19.07 12.3 19.01L12.66 19.04Z" fill="black"/>
<path d="M21.0899 31.72C20.9244 31.6441 20.7698 31.5465 20.6299 31.43C20.1201 30.7984 19.4509 30.3143 18.6915 30.0278C17.932 29.7412 17.1099 29.6626 16.3099 29.8C15.1523 30.0095 14.0123 30.307 12.8999 30.69C12.6601 30.7424 12.4154 30.7692 12.1699 30.77C12.3273 30.5945 12.4711 30.4073 12.5999 30.21C12.7512 30.006 12.8413 29.7632 12.8599 29.51C12.6464 28.2826 12.8806 27.0193 13.5199 25.95C13.8618 25.3554 14.353 24.8603 14.945 24.5138C15.5369 24.1672 16.209 23.9812 16.8949 23.9741C17.5808 23.9671 18.2566 24.1392 18.8556 24.4734C19.4545 24.8077 19.9558 25.2925 20.3099 25.88C20.8174 26.581 21.1601 27.3875 21.3125 28.2393C21.4648 29.0912 21.4229 29.9665 21.1899 30.8C21.1334 31.1037 21.1 31.4112 21.0899 31.72ZM19.4099 25.72C18.7899 26.94 18.1899 27.36 17.1699 27.22C15.8299 27.03 15.4699 26.05 15.4199 24.86C13.7599 25.65 12.7599 28.4 13.6299 29.75C16.0499 28.94 18.4299 28.83 20.6299 30.47C20.8768 29.6484 20.8936 28.7748 20.6785 27.9444C20.4633 27.1139 20.0246 26.3584 19.4099 25.76V25.72Z" fill="black"/>
<path d="M29.1797 30.96C29.205 29.8371 29.312 28.7175 29.4997 27.61C29.6963 26.6263 30.2039 25.7318 30.9475 25.0585C31.6911 24.3851 32.6313 23.9684 33.6297 23.87C34.6025 23.781 35.5721 24.07 36.3375 24.677C37.1028 25.2841 37.6049 26.1625 37.7397 27.13C37.8646 27.962 37.8646 28.808 37.7397 29.64C37.7397 30.06 37.6097 30.35 38.0597 30.57C38.1997 30.63 38.2297 30.9 38.3097 31.07C38.1315 31.0901 37.951 31.0731 37.7797 31.02C36.3551 30.0748 34.6792 29.5801 32.9697 29.6C32.3978 29.5887 31.8294 29.6926 31.2985 29.9056C30.7676 30.1187 30.2851 30.4364 29.8797 30.84C29.7448 30.953 29.5929 31.0442 29.4297 31.11L29.1797 30.96ZM37.0197 29.96C37.8297 28.1 37.0197 25.35 35.5797 24.96C35.3397 26.34 34.8797 26.96 33.8897 27.07C33.6244 27.1154 33.3528 27.1068 33.0909 27.0447C32.8291 26.9826 32.5825 26.8682 32.3659 26.7086C32.1493 26.5489 31.9671 26.3472 31.8303 26.1155C31.6935 25.8837 31.6049 25.6268 31.5697 25.36C30.2797 26.24 29.3897 28.71 29.8997 30C32.2497 28.56 34.6197 28.9 37.0197 29.99V29.96Z" fill="black"/>
<path d="M39.1001 35.66C38.9901 37.24 38.5701 38.81 38.9301 40.41C39.4856 38.8841 39.5451 37.2217 39.1001 35.66Z" fill="black"/>
<path d="M34.0801 36.13C33.7639 37.6284 33.6863 39.1674 33.8501 40.69C34.3854 39.2281 34.4655 37.6384 34.0801 36.13Z" fill="black"/>
<path d="M37.8003 35.85H37.5703C37.4703 37.38 37.3803 38.9 37.2803 40.43H37.5503C38.0085 38.947 38.0943 37.374 37.8003 35.85Z" fill="black"/>
<path d="M16.9901 37.23C17.5801 38.79 17.1801 40.3 16.8101 41.82C16.4801 40.28 16.9001 38.76 16.9901 37.23Z" fill="black"/>
<path d="M11.5596 42.2L11.8396 37.47C12.4196 38.11 12.3996 39.58 11.8396 42.19L11.5596 42.2Z" fill="black"/>
<path d="M15.5797 37.13C16.008 38.6208 15.9414 40.2103 15.3897 41.66C15.0597 40.18 15.4997 38.68 15.5797 37.13Z" fill="black"/>
<path d="M35.1798 36.03C34.8852 37.5279 34.8144 39.0613 34.9698 40.58C35.5027 39.1203 35.5759 37.5325 35.1798 36.03Z" fill="black"/>
<path d="M12.6797 41.89L12.9897 37.14C13.5381 38.6827 13.5381 40.3673 12.9897 41.91L12.6797 41.89Z" fill="black"/>
<path d="M44.3303 39.38C44.6711 39.3589 44.9951 39.2243 45.2506 38.9978C45.5061 38.7713 45.6785 38.4658 45.7403 38.13C45.7818 37.8953 45.7382 37.6535 45.6171 37.4481C45.4961 37.2428 45.3058 37.0874 45.0803 37.01C44.8678 36.9004 44.6207 36.8787 44.3924 36.9499C44.1641 37.021 43.973 37.1791 43.8603 37.39C44.0203 37.39 44.2003 37.25 44.3103 37.29C44.6103 37.42 45.0803 37.56 45.1203 37.78C45.1211 37.9464 45.0804 38.1104 45.0018 38.257C44.9232 38.4037 44.8093 38.5285 44.6703 38.62C44.5378 38.6843 44.3909 38.7135 44.2438 38.7048C44.0967 38.696 43.9543 38.6496 43.8303 38.57C43.6978 38.4509 43.5933 38.304 43.5241 38.1397C43.455 37.9755 43.4229 37.798 43.4303 37.62C43.6325 37.0939 43.8907 36.591 44.2003 36.12C43.7449 36.2405 43.3539 36.5329 43.1095 36.9357C42.8652 37.3385 42.7866 37.8204 42.8903 38.28C42.9572 38.6062 43.1398 38.8973 43.4045 39.0995C43.6691 39.3016 43.998 39.4013 44.3303 39.38Z" fill="black"/>
<path d="M21.7897 39.36C21.7897 39.36 21.7897 39.36 21.7097 39.28H21.0697C21.1923 39.062 21.3921 38.8979 21.6297 38.82C23.853 38.2689 26.1831 38.3207 28.3797 38.97C28.6522 39.0471 28.8973 39.1998 29.0866 39.4104C29.276 39.621 29.4019 39.8809 29.4497 40.16C29.5177 40.464 29.6012 40.7644 29.6997 41.06C29.7302 41.1592 29.7815 41.2507 29.8501 41.3285C29.9188 41.4063 30.0033 41.4686 30.0979 41.5112C30.1925 41.5538 30.2951 41.5757 30.3989 41.5755C30.5027 41.5753 30.6052 41.553 30.6997 41.51C30.8597 41.46 30.9997 41.06 30.9897 40.83C30.9678 40.204 30.911 39.5797 30.8197 38.96C30.7586 38.4032 30.5371 37.8762 30.182 37.443C29.8269 37.0098 29.3536 36.6892 28.8197 36.52C28.1767 36.2827 27.5033 36.1379 26.8197 36.09C24.9167 35.9967 23.0119 36.2336 21.1897 36.79C20.866 36.8519 20.564 36.9969 20.3132 37.2108C20.0625 37.4247 19.8718 37.7001 19.7597 38.01C19.4497 38.95 19.2297 39.93 18.9297 41.01C19.5897 41.01 20.0297 41.06 20.4697 41.01C22.0697 41.03 22.2097 40.83 21.7897 39.36Z" fill="white"/>
<path d="M20.0401 52.92C22.2634 53.7018 24.6526 53.888 26.9701 53.46C27.5528 53.3747 28.0914 53.1006 28.5033 52.6797C28.9152 52.2588 29.1775 51.7144 29.2501 51.13C25.9985 51.7145 22.6764 51.7955 19.4001 51.37C19.2701 52.38 19.3901 52.71 20.0401 52.92Z" fill="white"/>
<path d="M19.4097 25.76C20.0298 26.3631 20.471 27.126 20.6846 27.9643C20.8981 28.8026 20.8757 29.6837 20.6197 30.51C18.4297 28.87 16.0497 28.98 13.6197 29.79C12.7497 28.44 13.7497 25.69 15.4097 24.9C15.4097 26.09 15.8197 27.07 17.1597 27.26C18.1897 27.4 18.7897 26.98 19.4097 25.76Z" fill="white"/>
<path d="M37.02 29.99C34.62 28.9 32.25 28.56 29.9 29.99C29.39 28.7 30.28 26.23 31.57 25.35C31.6051 25.6168 31.6938 25.8737 31.8306 26.1055C31.9674 26.3372 32.1496 26.5389 32.3662 26.6986C32.5828 26.8582 32.8294 26.9725 33.0912 27.0346C33.3531 27.0967 33.6247 27.1054 33.89 27.06C34.89 26.93 35.34 26.33 35.58 24.95C37 25.38 37.83 28.13 37.02 29.99Z" fill="white"/>
</g>
<defs>
<clipPath id="clip0_107_838">
<rect width="49.03" height="62.06" fill="white"/>
</clipPath>
</defs>
</svg>
