<svg width="27" height="27" viewBox="0 0 27 27" fill="none" xmlns="http://www.w3.org/2000/svg">
<path d="M13.5 0C6.05618 0 0 6.05618 0 13.5C0 20.9438 6.05618 27 13.5 27C20.9438 27 27 20.9438 27 13.5C27 6.05618 20.9438 0 13.5 0ZM18.3879 16.9198C18.4884 17.0153 18.5688 17.1299 18.6243 17.2569C18.6797 17.3839 18.7092 17.5208 18.711 17.6594C18.7128 17.798 18.6868 17.9355 18.6346 18.0639C18.5824 18.1923 18.505 18.3089 18.4069 18.4069C18.3089 18.505 18.1923 18.5824 18.0639 18.6346C17.9355 18.6868 17.798 18.7128 17.6594 18.711C17.5208 18.7092 17.3839 18.6797 17.2569 18.6243C17.1299 18.5688 17.0153 18.4884 16.9198 18.3879L13.5 14.9688L10.0802 18.3879C9.88388 18.5744 9.62245 18.6769 9.35166 18.6734C9.08087 18.67 8.82214 18.5608 8.63065 18.3693C8.43916 18.1779 8.33004 17.9191 8.32658 17.6483C8.32311 17.3776 8.42556 17.1161 8.61209 16.9198L12.0312 13.5L8.61209 10.0802C8.42556 9.88388 8.32311 9.62245 8.32658 9.35166C8.33004 9.08087 8.43916 8.82214 8.63065 8.63065C8.82214 8.43916 9.08087 8.33004 9.35166 8.32658C9.62245 8.32311 9.88388 8.42556 10.0802 8.61209L13.5 12.0312L16.9198 8.61209C17.1161 8.42556 17.3776 8.32311 17.6483 8.32658C17.9191 8.33004 18.1779 8.43916 18.3693 8.63065C18.5608 8.82214 18.67 9.08087 18.6734 9.35166C18.6769 9.62245 18.5744 9.88388 18.3879 10.0802L14.9688 13.5L18.3879 16.9198Z" fill="#FF0000"/>
</svg>
