<svg width="33" height="34" viewBox="0 0 33 34" fill="none" xmlns="http://www.w3.org/2000/svg">
<path d="M32.6784 0.416495C32.5625 0.289127 32.4219 0.186583 32.2653 0.115061C32.1086 0.0435386 31.9391 0.00452261 31.7669 0.000370371C31.5947 -0.00378187 31.4235 0.0270159 31.2636 0.0909029C31.1036 0.15479 30.9583 0.250439 30.8364 0.372071L29.8551 1.3486C29.7362 1.4676 29.6694 1.62896 29.6694 1.7972C29.6694 1.96544 29.7362 2.1268 29.8551 2.2458L30.7547 3.14379C30.8136 3.20304 30.8837 3.25005 30.9609 3.28212C31.0381 3.3142 31.1209 3.33071 31.2045 3.33071C31.2881 3.33071 31.3708 3.3142 31.448 3.28212C31.5252 3.25005 31.5953 3.20304 31.6543 3.14379L32.6109 2.19186C33.0948 1.70875 33.1401 0.921815 32.6784 0.416495ZM27.8711 3.3318L13.5508 17.6267C13.464 17.7132 13.4009 17.8205 13.3676 17.9385L12.7052 19.9114C12.6893 19.9649 12.6882 20.0217 12.7019 20.0758C12.7157 20.1299 12.7437 20.1793 12.7832 20.2188C12.8227 20.2583 12.8721 20.2864 12.9262 20.3001C12.9804 20.3139 13.0372 20.3128 13.0907 20.2969L15.062 19.6345C15.1799 19.6012 15.2873 19.5381 15.3738 19.4512L29.6687 5.12937C29.8009 4.9957 29.8751 4.81526 29.8751 4.62723C29.8751 4.43919 29.8009 4.25875 29.6687 4.12508L28.8794 3.3318C28.7455 3.19834 28.5642 3.1234 28.3752 3.1234C28.1862 3.1234 28.0049 3.19834 27.8711 3.3318Z" fill="black"/>
<path d="M26.8398 11.5551L17.1705 21.2434C16.7968 21.618 16.3375 21.896 15.8323 22.0533L13.7777 22.7411C13.2901 22.8788 12.7746 22.884 12.2843 22.7562C11.794 22.6283 11.3467 22.372 10.9884 22.0138C10.6301 21.6555 10.3739 21.2082 10.246 20.7179C10.1182 20.2276 10.1234 19.7121 10.2611 19.2245L10.9489 17.1699C11.1057 16.6648 11.3832 16.2055 11.7572 15.8316L21.4455 6.16077C21.5343 6.07206 21.5948 5.95901 21.6194 5.83591C21.644 5.71282 21.6315 5.5852 21.5835 5.46921C21.5355 5.35322 21.4542 5.25406 21.3499 5.18427C21.2455 5.11449 21.1229 5.07721 20.9973 5.07715H4.44237C3.26418 5.07715 2.13425 5.54518 1.30114 6.37829C0.468034 7.21139 0 8.34133 0 9.51952V28.5582C0 29.7364 0.468034 30.8664 1.30114 31.6995C2.13425 32.5326 3.26418 33.0006 4.44237 33.0006H23.4811C24.6593 33.0006 25.7892 32.5326 26.6223 31.6995C27.4554 30.8664 27.9235 29.7364 27.9235 28.5582V12.0033C27.9234 11.8778 27.8861 11.7551 27.8163 11.6507C27.7465 11.5464 27.6474 11.4651 27.5314 11.4171C27.4154 11.3692 27.2878 11.3567 27.1647 11.3812C27.0416 11.4058 26.9285 11.4663 26.8398 11.5551Z" fill="black"/>
<path d="M32.6784 1.4165C32.5625 1.28913 32.4219 1.18658 32.2653 1.11506C32.1086 1.04354 31.9391 1.00452 31.7669 1.00037C31.5947 0.996218 31.4235 1.02702 31.2636 1.0909C31.1036 1.15479 30.9583 1.25044 30.8364 1.37207L29.8551 2.3486C29.7362 2.4676 29.6694 2.62896 29.6694 2.7972C29.6694 2.96544 29.7362 3.1268 29.8551 3.2458L30.7547 4.14379C30.8136 4.20304 30.8837 4.25005 30.9609 4.28212C31.0381 4.3142 31.1209 4.33071 31.2045 4.33071C31.2881 4.33071 31.3708 4.3142 31.448 4.28212C31.5252 4.25005 31.5953 4.20304 31.6543 4.14379L32.6109 3.19186C33.0948 2.70875 33.1401 1.92181 32.6784 1.4165ZM27.8711 4.3318L13.5508 18.6267C13.464 18.7132 13.4009 18.8205 13.3676 18.9385L12.7052 20.9114C12.6893 20.9649 12.6882 21.0217 12.7019 21.0758C12.7157 21.1299 12.7437 21.1793 12.7832 21.2188C12.8227 21.2583 12.8721 21.2864 12.9262 21.3001C12.9804 21.3139 13.0372 21.3128 13.0907 21.2969L15.062 20.6345C15.1799 20.6012 15.2873 20.5381 15.3738 20.4512L29.6687 6.12937C29.8009 5.9957 29.8751 5.81526 29.8751 5.62723C29.8751 5.43919 29.8009 5.25875 29.6687 5.12508L28.8794 4.3318C28.7455 4.19834 28.5642 4.1234 28.3752 4.1234C28.1862 4.1234 28.0049 4.19834 27.8711 4.3318Z" fill="black"/>
<path d="M26.8398 12.5551L17.1705 22.2434C16.7968 22.618 16.3375 22.896 15.8323 23.0533L13.7777 23.7411C13.2901 23.8788 12.7746 23.884 12.2843 23.7562C11.794 23.6283 11.3467 23.372 10.9884 23.0138C10.6301 22.6555 10.3739 22.2082 10.246 21.7179C10.1182 21.2276 10.1234 20.7121 10.2611 20.2245L10.9489 18.1699C11.1057 17.6648 11.3832 17.2055 11.7572 16.8316L21.4455 7.16077C21.5343 7.07206 21.5948 6.95901 21.6194 6.83591C21.644 6.71282 21.6315 6.5852 21.5835 6.46921C21.5355 6.35322 21.4542 6.25406 21.3499 6.18427C21.2455 6.11449 21.1229 6.07721 20.9973 6.07715H4.44237C3.26418 6.07715 2.13425 6.54518 1.30114 7.37829C0.468034 8.21139 0 9.34133 0 10.5195V29.5582C0 30.7364 0.468034 31.8664 1.30114 32.6995C2.13425 33.5326 3.26418 34.0006 4.44237 34.0006H23.4811C24.6593 34.0006 25.7892 33.5326 26.6223 32.6995C27.4554 31.8664 27.9235 30.7364 27.9235 29.5582V13.0033C27.9234 12.8778 27.8861 12.7551 27.8163 12.6507C27.7465 12.5464 27.6474 12.4651 27.5314 12.4171C27.4154 12.3692 27.2878 12.3567 27.1647 12.3812C27.0416 12.4058 26.9285 12.4663 26.8398 12.5551Z" fill="black"/>
</svg>
